<svg width="406" height="590" viewBox="0 0 406 590" fill="none" xmlns="http://www.w3.org/2000/svg">
<g opacity="0.52">
<path d="M62.3501 447.089L31.8672 406.499L33.7243 393.607L62.3501 447.089Z" fill="#FFA6AF"/>
</g>
<g opacity="0.52">
<path d="M63.7711 353.672C53.7731 367.002 43.7214 380.277 33.7246 393.607C38.314 398.96 42.9023 404.259 47.4367 409.614C52.899 390.984 58.3076 372.355 63.7711 353.672Z" fill="#FFA6AF"/>
</g>
<g opacity="0.52">
<path d="M76.9356 339.414L49.3477 370.226C64.9718 362.85 80.5959 355.421 96.2739 348.045C89.8285 345.15 83.3821 342.309 76.9356 339.414Z" fill="#FFA6AF"/>
</g>
<g opacity="0.52">
<path d="M92.6149 479.648L62.3496 447.089L67.2117 432.995L92.6149 479.648Z" fill="#FFA6AF"/>
</g>
<g opacity="0.52">
<path d="M137.302 516.905L92.6152 479.648C106.6 472.819 120.585 466.045 134.571 459.217C135.498 478.446 136.373 497.676 137.302 516.905Z" fill="#FFA6AF"/>
</g>
<g opacity="0.52">
<path d="M175.16 541.707L137.302 516.905L156.204 520.729L175.16 541.707Z" fill="#FFA6AF"/>
</g>
<g opacity="0.52">
<path d="M209.467 554.436L175.16 541.707L188.708 534.005L209.467 554.436Z" fill="#FFA6AF"/>
</g>
<g opacity="0.52">
<path d="M294.471 577.381C266.119 569.733 237.766 562.084 209.468 554.436C213.237 549.028 217.061 543.619 220.831 538.211C245.359 551.267 269.943 564.324 294.471 577.381Z" fill="#FFA6AF"/>
</g>
<g opacity="0.52">
<path d="M295.017 577.872L257.705 566.838L253.608 538.157L295.017 577.872Z" fill="#FFA6AF"/>
</g>
<g opacity="0.52">
<path d="M318.836 583.39L295.018 577.872C302.338 567.821 309.659 557.714 316.979 547.662C317.58 559.571 318.235 571.481 318.836 583.39Z" fill="#FFA6AF"/>
</g>
<g opacity="0.52">
<path d="M338.065 578.419L318.836 583.39C320.912 575.359 322.933 567.329 325.009 559.353C329.324 565.69 333.695 572.081 338.065 578.419Z" fill="#FFA6AF"/>
</g>
<g opacity="0.52">
<path d="M359.972 550.831L338.065 578.419V566.836L359.972 550.831Z" fill="#FFA6AF"/>
</g>
<g opacity="0.52">
<path d="M379.475 499.807L359.972 550.831C352.815 555.747 345.659 560.664 338.503 565.581C352.16 543.674 365.817 521.714 379.475 499.807Z" fill="#FFA6AF"/>
</g>
<g opacity="0.52">
<path d="M386.741 447.089L379.476 499.807L373.247 487.351L386.741 447.089Z" fill="#FFA6AF"/>
</g>
<g opacity="0.52">
<path d="M384.063 402.129L386.741 447.089L377.017 424.581L384.063 402.129Z" fill="#FFA6AF"/>
</g>
<g opacity="0.52">
<path d="M375.378 361.976L384.064 402.129L368.385 393.607L375.378 361.976Z" fill="#FFA6AF"/>
</g>
<g opacity="0.52">
<path d="M360.245 326.521L375.378 361.976L360.245 358.534V326.521Z" fill="#FFA6AF"/>
</g>
<g opacity="0.52">
<path d="M338.34 291.176L360.245 326.521L346.425 322.096L338.34 291.176Z" fill="#FFA6AF"/>
</g>
<g opacity="0.52">
<path d="M320.475 279.867L338.34 291.176H326.976L320.475 279.867Z" fill="#FFA6AF"/>
</g>
<g opacity="0.52">
<path d="M69.67 391.749C69.7788 376.835 69.8888 361.867 70.0527 346.953C63.1686 354.71 56.2856 362.467 49.3477 370.226C56.1218 377.436 62.8959 384.593 69.67 391.749Z" fill="#FFA6AF"/>
</g>
<g opacity="0.52">
<path d="M65.6284 408.521C54.3199 407.81 43.0663 407.045 31.7578 406.335C41.9196 419.883 52.1351 433.431 62.2957 447.034C63.4437 434.196 64.5355 421.359 65.6284 408.521Z" fill="#FFA6AF"/>
</g>
<g opacity="0.52">
<path d="M129.436 486.805L92.6161 479.648L67.2129 432.995L129.436 486.805Z" fill="#FFA6AF"/>
</g>
<g opacity="0.52">
<path d="M137.029 516.741C149.43 524.991 161.831 533.24 174.231 541.489C177.728 531.983 181.169 522.533 184.666 513.027C168.769 514.283 152.871 515.485 137.029 516.741Z" fill="#FFA6AF"/>
</g>
<g opacity="0.52">
<path d="M152.982 489.864L137.303 516.905L129.436 486.805L152.982 489.864Z" fill="#FFA6AF"/>
</g>
<g opacity="0.52">
<path d="M92.6152 479.211C98.4602 465.117 104.36 451.022 110.205 436.873C113.101 458.397 115.941 479.921 118.836 501.391C110.096 494.016 101.355 486.586 92.6152 479.211Z" fill="#FFA6AF"/>
</g>
<g opacity="0.52">
<path d="M209.468 554.436L188.709 534.005L239.295 552.196L209.468 554.436Z" fill="#FFA6AF"/>
</g>
<g opacity="0.52">
<path d="M257.706 566.838L253.664 538.157C244.431 544.985 235.198 551.814 225.966 558.643C236.509 561.319 247.107 564.105 257.706 566.838Z" fill="#FFA6AF"/>
</g>
<g opacity="0.52">
<path d="M359.972 550.831C352.215 550.612 344.403 550.448 336.645 550.229C338.72 557.495 340.796 564.816 342.818 572.081C348.554 564.979 354.291 557.933 359.972 550.831Z" fill="#FFA6AF"/>
</g>
<g opacity="0.52">
<path d="M306.928 573.447L321.568 578.419L316.433 547.771L306.928 573.447Z" fill="#FFA6AF"/>
</g>
<g opacity="0.52">
<path d="M184.775 545.477C192.805 548.263 200.781 551.049 208.812 553.835C207.501 542.527 206.135 531.273 204.824 519.965C198.105 528.486 191.44 537.009 184.775 545.477Z" fill="#FFA6AF"/>
</g>
<g opacity="0.52">
<path d="M149.046 525.1C140.906 519.145 132.767 513.191 124.627 507.236C134.078 501.445 143.475 495.655 152.925 489.864C151.668 501.609 150.358 513.355 149.046 525.1Z" fill="#FFA6AF"/>
</g>
<g opacity="0.52">
<path d="M47.7094 372.301C43.23 379.785 38.8056 387.215 34.3262 394.699C38.4779 402.729 42.5747 410.705 46.7265 418.736C47.0541 403.276 47.3818 387.761 47.7094 372.301Z" fill="#FFA6AF"/>
</g>
<g opacity="0.52">
<path d="M92.9433 480.304C90.8674 460.364 88.7915 440.479 86.7695 420.539C78.3571 429.553 69.9436 438.621 61.5312 447.635C72.0195 458.507 82.5089 469.378 92.9433 480.304Z" fill="#FFA6AF"/>
</g>
<g opacity="0.52">
<path d="M372.701 408.138C376.47 406.117 380.239 404.095 384.064 402.074C382.37 394.754 380.622 387.433 378.929 380.059C376.853 389.455 374.777 398.796 372.701 408.138Z" fill="#FFA6AF"/>
</g>
<g opacity="0.52">
<path d="M367.62 342.583C361.065 340.779 354.508 338.922 347.953 337.119C350.52 330.783 353.034 324.5 355.601 318.164C359.589 326.303 363.632 334.443 367.62 342.583Z" fill="#FFA6AF"/>
</g>
<g opacity="0.52">
<path d="M31.4844 393.607L18.4824 367.767L31.4844 381.807V393.607Z" fill="#FFA6AF"/>
</g>
<g opacity="0.52">
<path d="M18.4824 331.547V367.767L31.4844 364.871L18.4824 331.547Z" fill="#FFA6AF"/>
</g>
<g opacity="0.52">
<path d="M15.2598 317.671C16.6255 333.405 17.9912 349.138 19.3024 364.871C25.5299 353.017 31.7575 341.162 37.9852 329.253C30.3919 325.429 22.7987 321.55 15.2598 317.671Z" fill="#FFA6AF"/>
</g>
<g opacity="0.52">
<path d="M14.2207 317.671C15.5864 322.369 16.9521 327.067 18.2633 331.766C19.1373 326.303 20.0114 320.895 20.8855 315.431L14.2207 317.671Z" fill="#FFA6AF"/>
</g>
<g opacity="0.52">
<path d="M16.679 291.176L14.2207 317.671L20.9405 315.431L16.679 291.176Z" fill="#FFA6AF"/>
</g>
<g opacity="0.52">
<path d="M33.7242 256.65L16.6797 291.176L26.1848 287.461L33.7242 256.65Z" fill="#FFA6AF"/>
</g>
<g opacity="0.52">
<path d="M63.7711 227.641L33.7246 256.65L44.4867 261.621L63.7711 227.641Z" fill="#FFA6AF"/>
</g>
<g opacity="0.52">
<path d="M93.1615 215.459L63.7715 227.641L84.2577 226.604L93.1615 215.459Z" fill="#FFA6AF"/>
</g>
<g opacity="0.52">
<path d="M116.706 212.127L93.1602 215.459C104.906 219.338 116.706 223.162 128.451 227.041C124.572 222.069 120.639 217.098 116.706 212.127Z" fill="#FFA6AF"/>
</g>
<g opacity="0.52">
<path d="M145.716 225.566L116.707 212.127L133.969 215.459L145.716 225.566Z" fill="#FFA6AF"/>
</g>
<g opacity="0.52">
<path d="M164.617 237.803L145.715 225.621C146.589 230.373 147.463 235.126 148.337 239.879C153.8 239.169 159.208 238.514 164.617 237.803Z" fill="#FFA6AF"/>
</g>
<g opacity="0.52">
<path d="M168.058 251.679L164.617 237.803L162.377 241.299L168.058 251.679Z" fill="#FFA6AF"/>
</g>
<g opacity="0.52">
<path d="M160.355 265.336L168.059 251.679L164.617 250.203L160.355 265.336Z" fill="#FFA6AF"/>
</g>
<g opacity="0.52">
<path d="M141.672 284.566L160.355 265.336L153.855 278.174L141.672 284.566Z" fill="#FFA6AF"/>
</g>
<g opacity="0.52">
<path d="M122.607 304.451L141.673 284.566L135.39 271.127L122.607 304.451Z" fill="#FFA6AF"/>
</g>
<g opacity="0.52">
<path d="M108.184 311.443C119.492 302.484 130.801 293.526 142.054 284.566C132.384 287.516 122.715 290.521 113.046 293.471L108.184 311.443Z" fill="#FFA6AF"/>
</g>
<g opacity="0.52">
<path d="M74.6973 336.901L99.2802 322.971L108.185 311.443L74.6973 336.901Z" fill="#FFA6AF"/>
</g>
<g opacity="0.52">
<path d="M48.7461 365.09C57.3784 355.693 66.0646 346.352 74.6958 336.955L65.1355 325.155C59.672 338.431 54.2096 351.76 48.7461 365.09Z" fill="#FFA6AF"/>
</g>
<g opacity="0.52">
<path d="M45.0859 370.226L59.6721 353.672L45.0859 357.223V370.226Z" fill="#FFA6AF"/>
</g>
<g opacity="0.52">
<path d="M31.4844 393.607L45.0865 370.226L31.4844 381.807V393.607Z" fill="#FFA6AF"/>
</g>
<g opacity="0.52">
<path d="M45.0865 370.224L31.4844 364.871V381.807L45.0865 370.224Z" fill="#FFA6AF"/>
</g>
<g opacity="0.52">
<path d="M113.047 293.471L135.39 271.127L122.607 304.451L113.047 293.471Z" fill="#FFA6AF"/>
</g>
<g opacity="0.52">
<path d="M31.4844 364.871C31.5394 374.322 31.5932 383.773 31.7032 393.224C36.1826 381.205 40.607 369.241 45.0865 357.223L31.4844 364.871Z" fill="#FFA6AF"/>
</g>
<g opacity="0.52">
<path d="M20.9412 315.431C28.9171 297.567 36.893 279.704 44.8689 261.84C35.4724 271.619 26.0759 281.452 16.6797 291.231L20.9412 315.431Z" fill="#FFA6AF"/>
</g>
<g opacity="0.52">
<path d="M104.962 220.212C91.2495 222.779 77.4835 225.293 63.7715 227.86C73.6044 223.709 83.3836 219.557 93.2165 215.459L104.962 220.212Z" fill="#FFA6AF"/>
</g>
<g opacity="0.52">
<path d="M145.716 225.566L104.961 220.212L116.707 212.127L145.716 225.566Z" fill="#FFA6AF"/>
</g>
<g opacity="0.52">
<path d="M164.617 250.203L160.355 265.336L135.39 271.127L164.617 250.203Z" fill="#FFA6AF"/>
</g>
<g opacity="0.52">
<path d="M164.617 237.584C165.764 242.283 166.91 246.981 168.058 251.679C162.267 252.717 156.422 253.755 150.631 254.793C155.274 249.057 159.918 243.321 164.617 237.584Z" fill="#FFA6AF"/>
</g>
<g opacity="0.52">
<path d="M150.577 232.831L164.617 237.803L162.377 241.299L150.577 232.831Z" fill="#FFA6AF"/>
</g>
<g opacity="0.52">
<path d="M48.9111 421.631C53.3917 430.099 57.8711 438.621 62.3505 447.089L33.7246 393.607C38.7505 402.948 43.8314 412.29 48.9111 421.631Z" fill="#FFA6AF"/>
</g>
<g opacity="0.52">
<path d="M18.4824 367.767L31.4844 364.871C31.5933 374.595 31.7571 384.319 31.8671 394.043C27.4415 385.303 22.9621 376.507 18.4824 367.767Z" fill="#FFA6AF"/>
</g>
<g opacity="0.52">
<path d="M59.6721 353.672L65.1906 325.101L45.0859 357.223L59.6721 353.672Z" fill="#FFA6AF"/>
</g>
<g opacity="0.52">
<path d="M74.6967 336.901L65.1914 325.101L108.185 311.443L74.6967 336.901Z" fill="#FFA6AF"/>
</g>
<g opacity="0.52">
<path d="M108.185 311.443L85.6777 307.128L113.047 293.471L108.185 311.443Z" fill="#FFA6AF"/>
</g>
<g opacity="0.52">
<path d="M160.355 265.336L141.672 284.566L135.39 271.127L160.355 265.336Z" fill="#FFA6AF"/>
</g>
<g opacity="0.52">
<path d="M274.75 571.699C286.769 574.867 298.786 578.036 310.805 581.15C301.191 570.443 291.631 559.79 282.016 549.083C279.612 556.676 277.154 564.16 274.75 571.699Z" fill="#FFA6AF"/>
</g>
<g opacity="0.52">
<path d="M338.831 578.636C332.166 580.221 325.5 581.805 318.836 583.39C310.696 573.065 302.557 562.74 294.417 552.415C309.221 561.155 324.026 569.896 338.831 578.636Z" fill="#FFA6AF"/>
</g>
<g opacity="0.52">
<path d="M338.066 566.836V578.419H321.567L338.066 566.836Z" fill="#FFA6AF"/>
</g>
<g opacity="0.52">
<path d="M254.975 194.919L285.021 202.348L269.997 203.441L254.975 194.919Z" fill="#FFA6AF"/>
</g>
<g opacity="0.52">
<path d="M243.065 213.657L254.974 194.919C260 197.923 265.081 200.873 270.107 203.878C261.093 207.101 252.079 210.379 243.065 213.657Z" fill="#FFA6AF"/>
</g>
<g opacity="0.52">
<path d="M238.476 247.199L243.065 213.657L251.915 226.604L238.476 247.199Z" fill="#FFA6AF"/>
</g>
<g opacity="0.52">
<path d="M250.112 271.127L238.476 247.199L250.112 244.741V271.127Z" fill="#FFA6AF"/>
</g>
<g opacity="0.52">
<path d="M264.48 277.136L250.112 271.127C250.167 262.331 250.221 253.536 250.221 244.686C254.974 255.503 259.728 266.319 264.48 277.136Z" fill="#FFA6AF"/>
</g>
<g opacity="0.52">
<path d="M291.248 275.443L264.479 277.136C273.439 271.345 282.453 265.555 291.412 259.764C291.357 264.954 291.303 270.198 291.248 275.443Z" fill="#FFA6AF"/>
</g>
<g opacity="0.52">
<path d="M326.157 274.896C314.52 275.06 302.884 275.224 291.248 275.388V260.036C302.884 265.009 314.52 269.979 326.157 274.896Z" fill="#FFA6AF"/>
</g>
<g opacity="0.52">
<path d="M329.379 260.036L315.176 276.371L324.955 279.867L329.379 260.036Z" fill="#FFA6AF"/>
</g>
<g opacity="0.52">
<path d="M320.475 244.631L329.38 260.036L320.475 256.65V244.631Z" fill="#FFA6AF"/>
</g>
<g opacity="0.52">
<path d="M307.747 231.684L320.476 244.631L301.245 243.757L307.747 231.684Z" fill="#FFA6AF"/>
</g>
<g opacity="0.52">
<path d="M285.021 202.348L307.746 231.684L304.305 215.459L285.021 202.348Z" fill="#FFA6AF"/>
</g>
<g opacity="0.52">
<path d="M264.48 215.459L254.975 194.919L269.997 203.441L264.48 215.459Z" fill="#FFA6AF"/>
</g>
<g opacity="0.52">
<path d="M251.915 226.604L243.065 213.657C247.053 207.319 251.041 201.036 255.029 194.7C254.045 205.353 253.007 216.005 251.915 226.604Z" fill="#FFA6AF"/>
</g>
<g opacity="0.52">
<path d="M279.176 266.374L264.48 277.136L254.975 266.374H279.176Z" fill="#FFA6AF"/>
</g>
<g opacity="0.52">
<path d="M250.112 244.741L254.974 266.374L250.112 271.127V244.741Z" fill="#FFA6AF"/>
</g>
<g opacity="0.52">
<path d="M291.249 260.036V275.443L279.175 266.374L291.249 260.036Z" fill="#FFA6AF"/>
</g>
<g opacity="0.52">
<path d="M329.379 260.036L315.176 276.371L291.248 260.036H329.379Z" fill="#FFA6AF"/>
</g>
<g opacity="0.52">
<path d="M243.066 214.203C245.523 224.309 248.037 234.416 250.495 244.577C246.561 245.342 242.628 246.161 238.749 246.926C240.17 236 241.645 225.129 243.066 214.203Z" fill="#FFA6AF"/>
</g>
<g opacity="0.52">
<path d="M254.974 266.374L250.112 244.741L279.176 266.374H254.974Z" fill="#FFA6AF"/>
</g>
<g opacity="0.52">
<path d="M127.796 210.871L115.395 174.159C123.972 174.269 132.548 174.323 141.125 174.433C136.646 186.615 132.22 198.743 127.796 210.871Z" fill="#FFA6AF"/>
</g>
<g opacity="0.52">
<path d="M120.149 134.443L115.342 174.214L121.569 160.119L120.149 134.443Z" fill="#FFA6AF"/>
</g>
<g opacity="0.52">
<path d="M139.979 95.0009L120.148 134.443L139.979 126.467V95.0009Z" fill="#FFA6AF"/>
</g>
<g opacity="0.52">
<path d="M164.18 73.4769L139.979 95.0009L145.716 112.974L164.18 73.4769Z" fill="#FFA6AF"/>
</g>
<g opacity="0.52">
<path d="M207.611 31.5759L193.024 62.4417L207.611 66.0473V31.5759Z" fill="#FFA6AF"/>
</g>
<g opacity="0.52">
<path d="M273.11 112.974L260.929 86.7519V104.124L273.11 112.974Z" fill="#FFA6AF"/>
</g>
<g opacity="0.52">
<path d="M256.34 131.166L274.477 127.56C274.969 124.993 275.515 120.349 274.204 114.886C273.002 109.806 270.817 106.2 269.342 104.124C264.971 113.138 260.655 122.152 256.34 131.166Z" fill="#FFA6AF"/>
</g>
<g opacity="0.52">
<path d="M234.979 142.201L256.34 131.166L246.616 125.921L234.979 142.201Z" fill="#FFA6AF"/>
</g>
<g opacity="0.52">
<path d="M213.291 144.659L234.979 142.201L227.386 108.822L213.291 144.659Z" fill="#FFA6AF"/>
</g>
<g opacity="0.52">
<path d="M200.345 143.84C211.599 143.021 222.797 142.201 234.052 141.381C220.668 138.049 207.283 134.771 193.844 131.439C195.975 135.591 198.159 139.688 200.345 143.84Z" fill="#FFA6AF"/>
</g>
<g opacity="0.52">
<path d="M186.797 158.754L200.345 143.84L186.797 138.049V158.754Z" fill="#FFA6AF"/>
</g>
<g opacity="0.52">
<path d="M157.624 230.428L168.058 202.348H157.624V230.428Z" fill="#FFA6AF"/>
</g>
<g opacity="0.52">
<path d="M158.116 202.184C148.009 205.079 137.904 207.974 127.797 210.871V190.985C137.904 194.755 148.009 198.469 158.116 202.184Z" fill="#FFA6AF"/>
</g>
<g opacity="0.52">
<path d="M157.623 230.428C152.652 224.746 147.68 219.065 142.71 213.383C138.12 212.564 133.532 211.745 128.889 210.926C138.448 208.084 148.063 205.243 157.623 202.348V230.428Z" fill="#FFA6AF"/>
</g>
<g opacity="0.52">
<path d="M183.792 179.731C175.761 193.553 167.731 207.429 159.7 221.25C161.503 209.723 163.36 198.141 165.164 186.615L183.792 179.731Z" fill="#FFA6AF"/>
</g>
<g opacity="0.52">
<path d="M186.905 138.486C185.867 152.253 184.83 165.965 183.792 179.731L180.022 167.604C182.317 157.879 184.611 148.155 186.905 138.486Z" fill="#FFA6AF"/>
</g>
<g opacity="0.52">
<path d="M127.796 191.04L115.395 174.214C115.395 174.214 120.748 158.754 121.622 160.119C122.387 161.485 127.796 191.04 127.796 191.04Z" fill="#FFA6AF"/>
</g>
<g opacity="0.52">
<path d="M127.961 211.799C132.549 212.4 137.139 213.001 141.673 213.657C140.635 205.626 139.542 197.65 138.504 189.619C135.008 196.995 131.457 204.424 127.961 211.799Z" fill="#FFA6AF"/>
</g>
<g opacity="0.52">
<path d="M165.217 186.615L168.058 202.348H157.624L165.217 186.615Z" fill="#FFA6AF"/>
</g>
<g opacity="0.52">
<path d="M158.553 172.138C166.965 174.651 175.432 177.219 183.846 179.731C180.131 184.976 176.47 190.221 172.756 195.465C168.003 187.653 163.251 179.895 158.553 172.138Z" fill="#FFA6AF"/>
</g>
<g opacity="0.52">
<path d="M175.27 154.657C181.826 153.345 188.381 151.979 194.937 150.669C189.966 156.295 184.994 161.977 180.023 167.604C178.438 163.288 176.854 158.972 175.27 154.657Z" fill="#FFA6AF"/>
</g>
<g opacity="0.52">
<path d="M273.111 112.974L260.929 104.124L256.34 131.166L273.111 112.974Z" fill="#FFA6AF"/>
</g>
<g opacity="0.52">
<path d="M193.243 61.6769C195.866 44.9055 198.542 28.1343 201.164 11.4176C203.678 11.1444 206.19 10.8713 208.757 10.5981C203.568 27.6426 198.378 44.6324 193.243 61.6769Z" fill="#FFA6AF"/>
</g>
<g opacity="0.52">
<path d="M162.377 73.6407V53.4824L179.367 45.3426L162.377 73.6407Z" fill="#FFA6AF"/>
</g>
<g opacity="0.52">
<path d="M155.166 36.8203L165.218 43.2667L162.378 53.4824L155.166 36.8203Z" fill="#FFA6AF"/>
</g>
<g opacity="0.52">
<path d="M33.7246 256.65L55.1399 213.657L59.6732 223.326L33.7246 256.65Z" fill="#FFA6AF"/>
</g>
<g opacity="0.52">
<path d="M61.2578 179.731C59.182 191.095 57.1061 202.457 55.0302 213.821C52.4629 219.884 49.8955 225.948 47.3281 232.012C54.6476 227.751 61.9143 223.435 69.2337 219.174C66.5575 206.009 63.8802 192.897 61.2578 179.731Z" fill="#FFA6AF"/>
</g>
<g opacity="0.52">
<path d="M62.0765 138.049C60.2733 162.633 58.47 187.161 56.668 211.745C60.9286 191.04 65.1903 170.335 69.4509 149.685L62.0765 138.049Z" fill="#FFA6AF"/>
</g>
<g opacity="0.52">
<path d="M57.9785 95.0009L62.0764 138.049L69.4509 122.043L57.9785 95.0009Z" fill="#FFA6AF"/>
</g>
<g opacity="0.52">
<path d="M49.8945 53.4824L57.9793 95.0009L61.2569 54.4657L49.8945 53.4824Z" fill="#FFA6AF"/>
</g>
<g opacity="0.52">
<path d="M116.707 48.7843L101.684 48.9481L104.961 62.4417L116.707 48.7843Z" fill="#FFA6AF"/>
</g>
<g opacity="0.52">
<path d="M120.149 78.8852L116.707 48.7843L104.961 62.4417L120.149 78.8852Z" fill="#FFA6AF"/>
</g>
<g opacity="0.52">
<path d="M121.569 101.338L120.149 78.8305L106.164 75.3889C106.164 75.4435 106.164 75.4435 121.569 101.338Z" fill="#FFA6AF"/>
</g>
<g opacity="0.52">
<path d="M121.568 120.677V101.338L111.57 106.091L121.568 120.677Z" fill="#FFA6AF"/>
</g>
<g opacity="0.52">
<path d="M69.4525 122.043L62.0781 138.049L69.4525 149.631V122.043Z" fill="#FFA6AF"/>
</g>
<g opacity="0.52">
<path d="M257.269 186.615L282.562 167.604L269.997 162.359L257.269 186.615Z" fill="#FFA6AF"/>
</g>
<g opacity="0.52">
<path d="M312.335 160.393L282.562 167.604L301.245 149.631L312.335 160.393Z" fill="#FFA6AF"/>
</g>
<g opacity="0.52">
<path d="M349.266 160.393H312.335L333.204 152.799L349.266 160.393Z" fill="#FFA6AF"/>
</g>
<g opacity="0.52">
<path d="M239.568 209.505L257.268 186.615L243.065 188.254L239.568 209.505Z" fill="#FFA6AF"/>
</g>
<g opacity="0.52">
<path d="M233.177 247.199L239.569 209.505L228.205 216.388L233.177 247.199Z" fill="#FFA6AF"/>
</g>
<g opacity="0.52">
<path d="M364.56 161.922L349.265 160.393L346.424 149.631L364.56 161.922Z" fill="#FFA6AF"/>
</g>
<g opacity="0.52">
<path d="M346.424 149.631C355.875 149.084 365.381 148.538 374.831 147.991C371.389 152.635 368.003 157.279 364.56 161.922L346.424 149.631Z" fill="#FFA6AF"/>
</g>
<g opacity="0.52">
<path d="M238.475 263.588L233.177 247.199L211.16 252.334L238.475 263.588Z" fill="#FFA6AF"/>
</g>
<g opacity="0.52">
<path d="M164.617 230.428L186.195 239.605L183.792 202.348L164.617 230.428Z" fill="#FFA6AF"/>
</g>
<g opacity="0.52">
<path d="M211.161 252.334L186.195 239.605L191.549 251.679L211.161 252.334Z" fill="#FFA6AF"/>
</g>
<g opacity="0.52">
<path d="M202.476 231.684L186.195 239.605L211.161 252.334L202.476 231.684Z" fill="#FFA6AF"/>
</g>
<path d="M387.342 447.034L384.666 402.074V402.019V401.965L375.98 361.812C375.98 361.812 375.98 361.812 375.98 361.757V361.703L360.847 326.248C360.847 326.248 360.847 326.248 360.792 326.193V326.139L338.885 290.848C338.885 290.793 338.832 290.793 338.777 290.793C338.722 290.739 338.722 290.739 338.668 290.684L338.011 290.247L337.848 289.974L337.903 290.138L320.804 279.321H320.749C320.694 279.321 320.694 279.321 320.64 279.267C320.585 279.267 320.585 279.212 320.53 279.212L297.804 277.3C297.804 277.3 297.804 277.3 297.749 277.3C297.749 277.3 297.749 277.3 297.695 277.3L264.535 279.212L239.787 268.122C239.787 268.122 239.787 268.122 239.733 268.122L217.007 261.021L188.545 254.246L176.418 239.223C176.363 239.169 176.254 239.114 176.199 239.059L166.475 235.071C166.256 234.962 166.037 235.017 165.873 235.181C165.71 235.345 165.656 235.564 165.71 235.781L169.971 254.574H169.916L170.025 254.629L152.38 282.107L141.509 286.86L141.345 286.969L123.918 306.581L111.135 310.733L122.935 304.997C122.935 304.997 122.935 304.943 122.99 304.943C123.044 304.943 123.099 304.888 123.099 304.888L142.11 285.112L154.183 278.721C154.292 278.666 154.402 278.557 154.456 278.447L160.958 265.609L168.387 252.498L168.715 253.099L168.496 252.334L168.66 252.061C168.66 252.061 168.66 252.061 168.66 252.007C168.66 251.952 168.715 251.897 168.715 251.897C168.715 251.843 168.715 251.788 168.715 251.679C168.715 251.624 168.715 251.624 168.715 251.569L165.437 238.295L166.202 238.567L165.382 238.021L165.273 237.693C165.273 237.693 165.273 237.693 165.273 237.639C165.273 237.584 165.218 237.584 165.218 237.529C165.164 237.474 165.164 237.421 165.054 237.366C165.054 237.366 165.054 237.311 164.999 237.311L146.098 225.074L134.353 214.967C134.298 214.914 134.189 214.859 134.08 214.859L116.816 211.526C116.761 211.526 116.761 211.526 116.707 211.526C116.653 211.526 116.653 211.526 116.598 211.526L115.451 211.69L115.178 211.635L115.342 211.69L93.0525 214.804C93.0525 214.804 93.0525 214.804 92.9975 214.804H92.9437H92.8887L64.4816 226.604L64.5355 226.495L64.4266 226.714L63.4975 227.095L63.4437 227.15C63.3887 227.15 63.3887 227.205 63.3337 227.205L39.406 250.259L60.111 223.709L93.3802 210.051C93.3802 210.051 93.3802 210.051 93.4352 209.996C93.4901 209.996 93.4901 209.941 93.544 209.941L113.266 202.84C113.43 202.785 113.594 202.621 113.648 202.403C113.703 202.239 113.648 202.021 113.484 201.857L91.4681 177L106.054 149.904L111.026 164.981C111.135 165.2 111.354 165.364 111.572 165.419L111.627 165.636L111.682 165.364C111.954 165.309 112.118 165.091 112.173 164.872L115.997 139.251L122.17 120.786V120.731C122.17 120.677 122.225 120.677 122.225 120.622V101.283L120.804 78.7759L117.363 48.7297C117.363 48.675 117.308 48.675 117.308 48.6204C117.308 48.5657 117.308 48.5657 117.308 48.5111L117.254 48.4565C117.199 48.4019 117.199 48.3472 117.144 48.3472C117.09 48.2926 117.035 48.2926 116.98 48.238L116.926 48.1833C116.871 48.1833 116.871 48.1833 116.816 48.1833C116.761 48.1833 116.761 48.1833 116.707 48.1833L101.794 48.3472L82.1816 43.1028C81.9628 43.0481 81.744 43.1574 81.5802 43.3214C81.4163 43.2667 81.2525 43.2667 81.1437 43.3214L61.149 53.8102L49.9493 52.8815C49.7855 52.8815 49.5678 52.9361 49.4578 53.1C49.349 53.264 49.294 53.4278 49.294 53.5917L57.4337 95.1102L61.4766 138.049L60.6575 179.622L54.5387 213.438L33.1784 256.322L16.6257 289.865L16.5711 289.701V289.974L16.134 290.848C16.134 290.903 16.134 290.903 16.134 290.957C16.134 291.012 16.0795 291.012 16.0795 291.067L13.6211 317.562C13.6211 317.617 13.6757 317.617 13.6757 317.671C13.6757 317.726 13.6757 317.781 13.6757 317.781L17.7183 331.876C17.773 331.984 17.8276 332.093 17.8823 332.148V366.783L17.7183 366.565L17.8823 366.947V367.712C17.8823 367.712 17.8823 367.712 17.8823 367.767C17.8823 367.821 17.8823 367.876 17.9368 367.931V367.985L30.9387 393.826C30.9387 393.826 30.9387 393.826 30.9937 393.879C30.9937 393.934 31.0475 393.934 31.1025 393.989C31.1575 394.043 31.2113 394.098 31.2663 394.098C31.2663 394.098 31.2663 394.098 31.3213 394.153V394.317L31.3763 394.207H31.4851H31.594L31.704 394.426V394.153C31.8128 394.098 31.9216 393.989 32.0316 393.879L32.9057 392.405L33.2872 393.169L33.2334 393.224C33.2334 393.224 33.2334 393.224 33.1784 393.279C33.1784 393.333 33.1784 393.333 33.1784 393.388C33.1784 393.443 33.1234 393.443 33.1234 393.497L31.3213 406.39C31.3213 406.554 31.3213 406.717 31.4302 406.827L61.8593 447.362C61.8593 447.362 61.8593 447.362 61.8593 447.417L92.1784 479.976C92.1784 479.976 92.1784 479.976 92.2334 479.976C92.2334 479.976 92.2334 479.976 92.2334 480.031L136.866 517.288C136.866 517.288 136.866 517.288 136.92 517.288C136.92 517.288 136.92 517.288 136.92 517.343L174.833 542.199H174.887L174.942 542.254L209.249 554.928H209.304L257.488 567.329L294.854 578.364L318.618 583.881H318.782H318.892C318.892 583.881 318.892 583.881 318.946 583.881L338.175 578.91C338.23 578.91 338.285 578.855 338.394 578.801C338.449 578.801 338.449 578.746 338.504 578.746C338.504 578.746 338.504 578.746 338.558 578.746L338.885 578.364L339.596 578.2H338.995L360.465 551.159C360.465 551.159 360.465 551.104 360.52 551.049C360.52 550.995 360.573 550.995 360.573 550.995L361.011 549.793L361.066 549.738L380.077 499.916V499.861L380.132 499.807L387.452 447.089V447.034C387.342 447.089 387.342 447.089 387.342 447.034ZM149.266 284.784L130.637 300.791L142.056 287.953L149.266 284.784ZM385.266 453.371L379.094 497.785L377.454 494.507L373.849 487.296L377.454 476.534L385.266 453.371ZM316.487 582.243L297.094 577.764L306.764 574.157L316.487 582.243ZM292.833 576.561L258.253 566.345L255.139 544.166L254.537 539.741L265.792 550.503L292.833 576.561ZM255.084 565.526L213.183 554.709L239.078 552.797L246.453 558.643L255.084 565.526ZM180.132 539.577L188.599 534.769L207.01 552.852L176.582 541.598L180.132 539.577ZM171.556 538.648L140.253 518.107L155.932 521.276L161.121 527.012L171.556 538.648ZM136.21 515.212L94.8007 480.686L128.944 487.351L131.785 498.277L136.21 515.212ZM89.8299 475.715L63.061 446.924L67.3766 434.469L80.4872 458.507L89.8299 475.715ZM34.7078 393.169L49.0763 371.7L51.5337 381.588L55.304 396.666L42.7387 394.535L34.7078 393.169ZM71.2557 360.173L68.961 369.624H50.7146L75.7901 341.599L71.2557 360.173ZM176.199 240.807L186.906 254.136H171.446L175.106 243.976L176.199 240.807ZM188.873 255.557L213.566 261.457L198.488 263.533L190.458 264.626C190.403 264.626 190.348 264.626 190.294 264.626L190.02 264.681L189.528 260.966L188.873 255.557ZM242.246 284.784L240.28 269.707L262.568 279.704L242.246 284.784ZM383.628 405.407L385.922 443.702L377.618 424.581L381.17 413.219L383.628 405.407ZM337.466 577.817H323.48L337.466 567.984V577.817ZM209.687 553.781L202.094 546.351L191.058 535.479L236.401 551.814L209.687 553.781ZM36.8937 398.305L66.5025 433.159L62.1869 445.614L36.8937 398.305ZM216.57 262.222L221.323 268.014L223.125 270.198C217.772 269.269 201.93 266.483 194.063 265.281L216.57 262.222ZM308.785 286.205L305.616 285.44L320.203 280.578L325.775 290.247L308.785 286.205ZM367.566 501.828L378.22 500.571L355.056 535.424L334.242 505.816L367.566 501.828ZM240.006 276.809L240.935 284.074L226.076 271.509L239.023 269.433L240.006 276.809ZM119.111 332.804L124.683 307.893L166.694 320.895L114.03 355.857L119.111 332.804ZM153.528 283.036L171.282 277.3L167.732 318.217L164.344 309.805L153.528 283.036ZM189.146 533.076L185.54 514.393L215.642 535.971L235.418 550.121L189.201 533.514L189.146 533.076ZM330.637 372.083L343.966 342.255L359.263 358.371L330.637 372.083ZM156.751 519.965L153.692 491.121L183.246 512.754L175.27 514.939L156.751 519.965ZM85.8957 343.293L87.2075 344.003L111.463 357.005L70.7093 369.188L76.1178 359.955L85.8957 343.293ZM173.468 276.153L189.42 266.101L209.085 284.457L173.468 276.153ZM126.104 461.183L123.154 442.009L151.78 489.154L129.928 486.313L126.104 461.183ZM227.223 321.441L169.698 320.129L210.944 286.478L227.223 321.441ZM332.494 505.379L331.948 505.597L332.44 505.543L316.652 545.477L304.36 466.81L332.494 505.379ZM279.995 490.355L242.246 492.214L259.345 430.864L302.503 464.571L279.995 490.355ZM261.421 351.651L326.922 373.121L279.285 381.315L226.785 355.202L261.421 351.651ZM303.213 319.966L328.233 372.301L262.732 350.831L282.945 335.426L303.213 319.966ZM68.9061 432.612L81.744 423.817L103.268 409.067L120.968 438.348L117.69 437.966L68.9061 432.612ZM70.4905 370.553L112.282 358.097L103.104 406.881L91.6319 394.098L70.4905 370.553ZM122.116 437.911L104.087 408.083L113.375 358.753L143.311 402.183L122.116 437.911ZM144.077 403.221L179.422 456.485L123.044 438.731L144.077 403.221ZM278.411 382.243L259.018 428.351L225.911 356.131L278.411 382.243ZM181.225 455.829L175.816 407.209L210.889 409.667L181.225 455.829ZM224.873 356.677L257.816 428.624L212.637 408.739L224.873 356.677ZM223.782 355.912L211.654 407.701L186.852 373.557L223.782 355.912ZM211.818 410.488L240.334 491.557L181.661 457.359L211.818 410.488ZM212.965 410.214L258.308 430.154L241.372 490.847L212.965 410.214ZM260.001 429.116L279.34 383.117L310.916 423.161L260.001 429.116ZM223.399 354.765L186.306 372.519L169.152 322.096L223.399 354.765ZM210.725 408.411L175.216 405.898C175.052 405.843 174.833 405.953 174.723 406.062C174.615 406.171 174.56 406.39 174.56 406.554L179.968 455.119L144.896 402.238L185.868 374.159L210.725 408.411ZM240.006 492.759L185.158 512.207L181.498 458.671L240.006 492.759ZM303.049 463.423L260.602 430.317L311.353 424.364L303.049 463.423ZM224.164 353.836L170.299 321.386L227.496 322.697L224.164 353.836ZM144.185 401.255L114.413 358.097L184.503 373.612L144.185 401.255ZM75.5163 426.603L67.5405 432.066L56.9972 398.25L101.957 408.466L75.5163 426.603ZM241.044 493.688L252.735 537.173L186.36 513.027L241.044 493.688ZM303.049 465.827L315.395 545.04L281.087 491.011L303.049 465.827ZM225.366 354.164L228.698 323.298L260.056 350.614L225.366 354.164ZM101.739 407.155L56.9972 396.993L69.5613 371.317L91.6869 396.01L101.739 407.155ZM153.418 489.427L123.482 440.151L180.296 458.015L183.956 511.771L153.418 489.427ZM279.23 491.612L253.828 536.572L242.246 493.469L279.23 491.612ZM336.428 541.326L317.416 546.897L333.314 506.581L354.128 536.135L336.428 541.326ZM304.251 463.478L312.445 424.855L337.028 450.695L304.251 463.478ZM311.844 422.396L280.268 382.353L328.452 374.104L311.844 422.396ZM185.049 372.519L114.577 356.895L167.732 321.605L185.049 372.519ZM69.0699 433.814L121.623 439.605L122.88 447.964L128.616 485.274L69.0699 433.814ZM188.545 515.103L252.516 538.376L239.242 551.431L212.637 532.366L188.545 515.103ZM304.36 464.734L337.356 451.841L332.713 503.631L304.36 464.734ZM367.84 394.043L375.761 422.396L332.221 375.524L367.84 394.043ZM343.147 340.998L329.38 371.919L304.415 319.747L345.77 322.643L343.147 340.998ZM304.032 317.398V286.314L305.016 286.533L325.884 291.559L312.718 307.128L304.032 317.398ZM261.913 349.957L255.685 305.271L302.066 319.255L261.913 349.957ZM209.796 285.822L168.77 319.365L172.43 277.136L209.796 285.822ZM280.323 492.104L315.177 546.952L254.592 537.61L280.323 492.104ZM315.559 548.264L311.68 558.697L306.599 572.464L256.232 539.085L315.559 548.264ZM322.006 577.381L320.311 567.329L317.308 549.355L328.397 559.134L337.083 566.783L323.918 576.015L322.006 577.381ZM317.635 548.045L353.854 537.446L337.903 565.854L325.392 554.819L317.635 548.045ZM353.254 385.084L330.746 373.393L359.809 359.409L367.458 392.514L353.254 385.084ZM345.278 321.386L304.633 318.545L326.868 292.214L331.456 299.479L345.278 321.386ZM254.811 303.14L242.683 285.877L263.442 280.686L254.811 303.14ZM241.263 285.931L254.373 304.669L260.602 349.576L228.644 321.769L211.818 285.714L224.656 272.001L241.263 285.931ZM211.108 284.674L191.332 266.21L223.399 271.509L211.108 284.674ZM111.899 355.912L86.606 342.364L100.264 326.303L109.168 348.974L111.899 355.912ZM63.8802 424.309L65.7922 430.372L35.3093 394.481L55.7405 397.922L63.8802 424.309ZM131.785 487.733L151.998 490.355L137.521 515.321L130.256 487.515L131.785 487.733ZM178.657 533.021L184.448 515.431L187.944 533.567H187.89L187.944 533.622V533.731L183.356 536.354L176.144 540.451L178.657 533.021ZM333.86 504.341L338.504 452.333L372.156 487.188L333.86 504.341ZM313.483 424.254L375.051 425.183L338.121 450.148L313.483 424.254ZM329.654 374.486L375.652 423.981L312.937 423.052L329.654 374.486ZM359.044 326.74L355.603 329.799L344.513 339.633L346.861 323.189L346.916 323.298L346.861 323.134L346.916 322.916L348.773 323.517L359.044 326.74ZM302.83 286.15V316.961L283.656 286.15H302.83ZM302.066 317.999L256.395 304.178L282.454 286.369L302.066 317.999ZM188.327 265.336L172.484 275.333L171.282 255.831L188.327 265.336ZM183.465 513.955L183.737 513.901L174.942 540.56L157.352 521.112L183.465 513.955ZM307.692 573.065L310.533 565.417L316.215 550.066L320.804 577.49L314.958 575.523L307.692 573.065ZM378.547 499.26L363.742 501.009L337.083 504.177L372.975 488.116L375.597 493.305L378.547 499.26ZM383.354 402.402L380.404 411.853L377.072 422.451L369.37 394.809L375.487 398.086L383.354 402.402ZM297.532 278.721L302.175 284.948H285.13L297.532 278.721ZM160.192 302.757L167.021 319.747L125.448 306.855L152.435 283.636L160.192 302.757ZM118.62 329.581L112.937 355.147L108.294 343.347L101.247 325.319L123.318 308.603L118.62 329.581ZM77.3734 340.179L84.804 342.801L81.4163 348.538L70.9819 366.401L72.1299 361.703L77.3734 340.179ZM56.3419 395.683L53.1181 382.735L50.1681 370.881H68.5234L56.3419 395.683ZM258.908 542.364L305.616 573.338L295.182 577.217L286.004 568.367L258.908 542.364ZM339.923 564.707L354.947 537.938L359.263 550.557L358.88 550.831L339.923 564.707ZM372.975 486.259L339.378 451.459L385.922 447.745L372.975 486.259ZM368.332 390.929L361.066 359.299L374.723 362.414L368.332 390.929ZM359.645 357.005L353.363 350.449L344.568 341.217L359.59 327.886V357.005H359.645ZM340.908 303.414L344.84 318.436L328.015 291.777H337.848L340.908 303.414ZM281.197 285.714L256.232 302.812L258.69 296.366L264.754 280.578L266.72 281.179L281.197 285.714ZM188.654 263.588L188.709 264.189L172.866 255.339H187.616L188.654 263.588ZM69.3437 435.671L127.36 485.821L111.735 482.762L93.0525 479.102L92.8887 478.829L69.3437 435.671ZM138.232 516.469L140.361 512.809L152.599 491.776L155.549 520.019L149.758 518.817L138.232 516.469ZM240.225 552.141L248.966 543.565L253.227 539.359L256.887 565.362L248.256 558.479L240.225 552.141ZM309.823 575.086L320.694 578.801L318.673 582.516L314.521 579.074L309.823 575.086ZM340.306 450.148L376.744 425.51L385.868 446.543L340.306 450.148ZM369.042 393.333L375.378 364.817L383.19 400.981L369.042 393.333ZM360.847 358.043V329.417L374.395 361.102L360.847 358.043ZM346.916 321.605L339.923 294.891L358.88 325.429L346.916 321.605ZM327.304 290.576L326.54 289.264L322.17 281.671L336.209 290.576H327.304ZM305.507 284.183L303.649 284.784L303.485 284.621L299.006 278.666L317.471 280.25L305.507 284.183ZM289.828 281.233L282.563 284.893L271.582 281.452L267.868 280.305L294.909 278.721L289.828 281.233ZM218.592 262.769L236.947 268.505L224.928 270.471L218.592 262.769ZM171.282 275.989L154.128 281.561L170.08 256.65L171.282 275.989ZM85.4593 341.817L78.3025 339.305L97.5319 327.614L85.4593 341.817ZM320.913 580.877L321.896 579.019H333.314L320.039 582.461L320.913 580.877ZM338.668 567.165L356.749 553.945L338.668 576.671V567.165ZM355.766 536.572L376.963 504.669L360.028 549.083L355.766 536.572ZM175.216 239.933L170.682 252.607L167.075 236.601L175.216 239.933ZM103.542 322.041L111.08 311.99L120.968 308.821L112.009 315.65L103.542 322.041ZM34.0525 395.519L37.6578 402.293L58.0351 440.424L32.4681 406.39L34.0525 395.519ZM114.522 140.89L111.354 162.25L106.873 148.593L114.522 140.89ZM62.7872 193.826L64.4816 204.971L55.9593 212.181L61.149 183.446L62.7872 193.826ZM61.9143 174.869L62.5696 140.071L64.2078 142.638L68.7422 149.74L64.3716 165.855L61.9143 174.869ZM105.999 147.664L84.9128 138.759L87.754 111.226L111.08 106.801L114.795 138.923L105.999 147.664ZM55.8493 213.821L63.9901 206.936L59.5646 221.633L55.8493 213.821ZM120.968 102.321V118.765L112.501 106.364L120.968 102.321ZM81.5252 207.101L65.6834 204.643L62.0781 181.371L91.3043 208.631L81.5252 207.101ZM84.749 86.2602L104.47 63.9167L105.508 75.1157L84.749 86.2602ZM109.878 105.763L87.644 110.024L83.0007 89.6473L109.878 105.763ZM81.1437 88.0083L59.0731 94.0722L70.4905 69.2704L81.1437 88.0083ZM70.3266 122.207L86.4422 111.936L83.766 137.721L70.3266 122.207ZM68.8522 147.555L64.2628 140.343L62.7872 137.995L68.8522 124.774V147.555ZM62.0781 179.021L65.2458 167.385L69.7263 150.941L89.611 176.564L62.0781 179.021ZM70.054 149.412V123.627L83.711 139.415L89.7749 174.815L70.054 149.412ZM111.627 105.381L83.3284 88.3907L105.945 76.2083L120.695 101.065L111.627 105.381ZM106.71 74.9519L105.672 64.1898L118.292 77.8472L106.71 74.9519ZM90.9216 209.778L60.6025 222.288L65.5734 205.845L90.9216 209.778ZM62.6234 180.223L90.1575 177.765L92.4522 208.029L62.6234 180.223ZM115.232 112.428L120.914 120.731L115.67 136.355L112.446 108.385L115.232 112.428ZM107.42 76.3722L119.603 79.3769L120.804 98.9343L107.42 76.3722ZM105.727 62.4417L114.14 52.663L116.216 50.2593L119.275 77.1371L105.727 62.4417ZM105.235 61.1852L102.449 49.5491L115.396 49.4398L105.235 61.1852ZM82.1816 87.3528L71.2557 68.1778L101.302 49.8769L104.306 62.2778L82.1816 87.3528ZM58.8543 91.6685L61.6954 56.214L69.7263 68.014L58.8543 91.6685ZM81.6352 89.1555L86.4972 110.461L69.6713 121.169L58.7993 95.3833L81.6352 89.1555ZM68.7422 122.043L62.4057 135.755L58.9093 98.825L68.7422 122.043ZM58.9643 223.217L36.8937 251.515L55.0851 215.022L58.9643 223.217ZM93.7078 208.685L91.4681 178.857L112.009 202.074L93.7078 208.685ZM105.29 148.702L91.0316 175.252L85.0216 140.124L105.29 148.702ZM100.154 49.1667L71.856 66.4297L82.3454 44.414L100.154 49.1667ZM62.1319 54.6843L80.1596 45.2333L70.3816 66.7574L62.1319 54.6843ZM60.6025 55.0121L57.7613 90.6305L50.6596 54.1926L60.6025 55.0121ZM133.642 219.338L121.46 213.657L133.697 216.005L142.056 223.217L133.642 219.338ZM144.732 282.271L158.008 268.614L153.418 277.736L144.732 282.271ZM121.623 304.233L109.114 310.351L109.551 308.767L113.375 294.727L121.132 303.631L121.623 304.233ZM104.853 314.721L98.8437 322.479L82.2905 331.876L104.853 314.721ZM19.084 334.716L30.666 364.379L19.084 366.947V334.716ZM20.1766 316.305L18.1007 328.979L14.9323 318.054L20.1766 316.305ZM91.1404 217.043L83.9299 226.057L67.2128 226.877L91.2493 216.934L91.1404 217.043ZM167.185 251.952L162.268 260.638L164.999 251.078L167.021 251.952H167.185ZM59.1819 353.181L57.9263 353.454L46.399 356.24L63.9901 328.16L59.1819 353.181ZM166.694 250.422L165.164 249.767L164.125 245.779L166.694 250.422ZM141.837 283.528L140.416 280.523L136.21 271.564L158.444 266.429L141.837 283.528ZM45.8525 260.365L63.9352 228.516L85.4593 244.414L45.8525 260.365ZM63.6614 325.921L31.649 363.724L19.3026 332.039L63.6614 325.921ZM19.1933 330.619L21.4334 316.142L61.6954 324.991L19.1933 330.619ZM84.9128 227.041L103.323 221.305L87.0975 243.102L84.9128 227.041ZM24.0007 302.429L26.6781 288.226L41.7007 291.614L21.9249 313.465L24.0007 302.429ZM84.9128 306.964L65.9022 323.626L69.8351 279.867L84.9128 306.964ZM70.3266 278.338L103.815 269.761L85.6231 305.817L70.3266 278.338ZM115.723 236.546L104.744 267.576L87.699 244.959L115.723 236.546ZM134.298 253.809L117.964 236.109L149.157 233.541L134.298 253.809ZM42.8475 292.05L42.9575 292.433L43.0113 291.886L43.2302 291.667L68.7422 278.939L64.6454 324.391L22.0887 315.049L42.8475 292.05ZM104.798 270.417L112.282 293.143L86.9887 305.762L104.798 270.417ZM135.227 270.471L105.782 268.286L116.926 236.765L133.916 255.176H133.97C134.08 255.284 134.189 255.339 134.353 255.339L162.159 251.186L135.227 270.471ZM116.653 235.017H116.598H116.544L88.2454 243.484L105.18 220.867L147.19 232.449L116.653 235.017ZM43.504 290.193L45.0334 262.659L68.2507 277.846L43.504 290.193ZM105.782 269.488L134.025 271.619L113.32 292.323L105.782 269.488ZM135.718 253.973L150.632 233.815L163.525 249.821L135.718 253.973ZM103.923 268.505L69.5613 277.3L45.7437 261.676L86.4972 245.341L103.923 268.505ZM107.748 310.788L87.5351 306.909L112.118 294.672L107.748 310.788ZM138.232 269.816L163.634 251.679L159.92 264.79L138.232 269.816ZM113.484 221.96L145.387 226.167L149.211 231.848L113.484 221.96ZM42.466 287.352L34.654 257.743L43.8855 262.004L42.466 287.352ZM44.6507 356.731L34.1075 362.686L60.2199 331.929L44.6507 356.731ZM67.7043 323.681L71.4196 320.403L85.7869 307.783L105.672 311.607L85.7869 317.945L67.7043 323.681ZM153.965 236L161.832 241.681L163.361 247.691L153.965 236ZM163.744 238.131L162.214 240.479L162.049 240.371L161.777 239.879L161.885 240.207L154.347 234.798L163.744 238.131ZM140.253 224.255L106.601 219.829L116.761 212.837L141.892 224.473L140.253 224.255ZM93.3802 216.169L103.159 220.103L100.154 221.031L85.9507 225.457L90.9216 219.229L93.3802 216.169ZM83.711 227.259L85.8957 243.321L65.4646 228.188L83.711 227.259ZM17.3359 291.559L25.4213 288.39L20.9419 312.045L20.2313 307.893L17.3359 291.559ZM19.6304 368.095L30.8837 365.581V380.277L19.6304 368.095ZM32.0855 365.745L43.8316 370.389L43.9405 370.443L32.0855 380.55V365.745ZM44.4869 369.351L42.3022 368.477L32.9057 364.762L44.4869 358.207V369.351ZM90.704 324.009L74.806 336.081L72.1299 332.749L66.1749 325.429L105.016 313.083L90.704 324.009ZM122.389 303.304L115.451 295.328L113.866 293.524L121.187 286.205L133.806 273.585L123.699 299.862L122.389 303.304ZM33.7249 259.054L41.9734 290.357L26.8958 286.969L31.4302 268.395L33.7249 259.054ZM133.916 276.699L135.445 272.657L136.373 274.678L140.963 284.457L124.246 301.883L133.916 276.699ZM163.306 241.736L163.087 241.354L164.399 239.333L166.366 247.364L163.306 241.736ZM151.015 232.34L147.901 227.696L160.028 235.509L151.015 232.34ZM109.004 216.661L104.853 219.502L95.8937 215.896L95.456 215.733L114.194 213.11L109.004 216.661ZM30.8837 265.719L25.694 286.969L17.8823 290.029L31.8128 261.785L30.8837 265.719ZM18.2647 303.905L20.2313 314.995L14.8776 316.797L16.7897 295.71L18.2647 303.905ZM30.8837 382.079V391.093L20.9419 371.317L30.8837 382.079ZM32.0855 382.134L42.7937 373.011L32.0855 391.421V382.134ZM45.6887 357.66L57.9802 354.71L45.6887 368.641V357.66ZM65.5196 326.521L73.9319 336.901L60.7114 351.651L65.5196 326.521ZM51.5887 247.855L44.2143 260.802L34.7628 256.431L61.149 230.974L51.5887 247.855ZM32.9057 392.35L45.5798 370.553L60.166 354.055L75.1337 337.393L99.6078 323.462L108.622 311.935L110.316 311.116L100.099 324.664L76.6643 338.867C76.6093 338.867 76.6093 338.922 76.6093 338.922C76.6093 338.922 76.5543 338.922 76.5543 338.977L48.9114 369.843C48.9114 369.843 48.9114 369.843 48.9114 369.897L33.506 392.951L32.9057 392.35Z" fill="#FFA6AF"/>
<path d="M329.981 259.983C329.981 259.928 329.981 259.873 329.981 259.819V259.764V259.709L329.817 259.381V259.272L329.762 259.327L321.021 244.249L320.967 244.195C320.967 244.195 320.967 244.195 320.967 244.14C320.967 244.14 320.967 244.14 320.967 244.085L308.347 231.302L304.961 215.241C304.906 215.077 304.852 214.967 304.687 214.859L285.404 201.747C285.349 201.747 285.349 201.747 285.294 201.693C285.24 201.693 285.24 201.638 285.185 201.638L255.138 194.209H255.083H255.03C255.03 194.209 255.03 194.209 254.975 194.209C254.92 194.209 254.866 194.209 254.866 194.209C254.811 194.209 254.756 194.264 254.702 194.264C254.702 194.264 254.647 194.264 254.592 194.317C254.592 194.317 254.592 194.372 254.537 194.372C254.537 194.372 254.483 194.372 254.483 194.427L253.718 194.209L254.373 194.591L242.573 213.165C242.573 213.219 242.573 213.274 242.519 213.274C242.519 213.329 242.464 213.329 242.464 213.383L237.876 246.926C237.876 246.926 237.876 246.926 237.876 246.981C237.876 247.035 237.875 247.145 237.93 247.199V247.254C237.93 247.254 237.93 247.254 237.93 247.309L238.149 247.8L249.511 271.236C249.511 271.291 249.566 271.291 249.621 271.345C249.676 271.4 249.73 271.455 249.785 271.455C249.785 271.455 249.785 271.455 249.84 271.455L250.221 271.619L250.276 271.783V271.673L264.152 277.464L264.316 277.519H264.425L291.194 275.826L315.012 276.809L324.628 280.25L324.845 280.305C324.955 280.305 325.064 280.305 325.119 280.25C325.283 280.141 325.392 280.031 325.392 279.867L329.871 260.036C329.871 260.036 329.871 260.036 329.871 259.983C329.981 260.091 329.981 260.036 329.981 259.983ZM287.807 204.971L303.759 215.786L306.599 229.226L287.807 204.971ZM289.555 274.951L266.447 276.426L273.821 271.072L279.175 267.139L287.261 273.257L289.555 274.951ZM252.025 270.089L254.92 267.248L261.202 274.35L262.24 275.552L251.15 270.909L252.025 270.089ZM251.205 226.659L239.405 244.631L243.447 215.295L251.205 226.659ZM257.269 201.255L263.497 214.749L259.071 214.367L244.157 213.11L254.92 196.121L257.269 201.255ZM290.647 274.241L281.797 267.576L280.323 266.483L290.647 261.076V274.241ZM319.602 270.417L315.121 275.607L310.478 272.438L293.216 260.638H328.069L319.602 270.417ZM267.376 274.241L264.535 276.317L256.34 266.976H277.373L267.376 274.241ZM256.34 196.339L263.442 200.381L269.233 203.659L264.48 213.984L259.892 204.041L256.34 196.339ZM319.875 245.233V255.503L303.376 244.467L305.561 244.577L319.875 245.233ZM300.973 242.993L283.382 235.891L306.654 232.449L300.973 242.993ZM250.221 237.803L249.566 244.249L239.787 246.326L251.095 229.062L250.221 237.803ZM250.823 243.921L252.461 227.423L279.011 235.617L250.823 243.921ZM280.432 236.436L278.683 265.172L251.423 244.905L280.432 236.436ZM279.885 265.336L281.58 238.24L290.538 259.764L279.885 265.336ZM253.117 226.385L264.808 215.951C264.808 215.951 264.862 215.896 264.862 215.841H264.917V215.786C264.917 215.786 264.917 215.786 264.971 215.733L269.888 205.079L280.104 234.743L253.117 226.385ZM255.466 265.773L252.68 253.481L251.042 246.216L277.373 265.773H255.466ZM244.267 214.367L262.95 215.951L252.025 225.729L248.473 220.54L244.267 214.367ZM291.631 259.436L282.18 236.71L300.973 244.249L320.147 257.086H320.202L320.257 257.141L326.102 259.381H291.631V259.436ZM284.311 203.004L280.759 232.941L270.762 203.986L284.311 203.004ZM253.39 261.949L254.319 266.155L253.664 266.811L250.714 269.707V250.149L253.39 261.949ZM321.076 256.214V246.871L328.014 258.89L321.076 256.214ZM304.195 243.266L302.283 243.157L302.775 242.228L307.911 232.667L319 243.921L304.195 243.266ZM281.797 234.907L285.457 203.878L306.654 231.247L281.797 234.907ZM270.161 202.84L266.72 200.873L259.126 196.557L281.252 202.021L270.161 202.84ZM249.347 245.505L249.511 245.451V268.45L239.35 247.581L249.347 245.505ZM291.849 261.184L305.452 270.471L313.1 275.716L291.849 274.841V261.184ZM316.214 276.098L328.287 262.222L324.518 279.048L316.214 276.098Z" fill="#FFA6AF"/>
<path d="M119.602 134.171C119.602 134.226 119.602 134.279 119.602 134.279L119.547 134.334L114.849 173.176L114.74 173.067L114.849 173.285L114.74 174.105C114.74 174.159 114.74 174.214 114.74 174.214C114.74 174.269 114.74 174.323 114.74 174.323L115.014 175.088L114.959 175.416L115.068 175.252L127.196 211.034C127.196 211.089 127.251 211.089 127.251 211.143C127.306 211.198 127.306 211.253 127.359 211.253C127.414 211.307 127.469 211.362 127.578 211.362C127.633 211.362 127.633 211.417 127.687 211.417H127.797L128.016 211.964V211.417L141.399 214.093L157.242 230.701C157.242 230.755 157.297 230.701 157.352 230.755C157.406 230.81 157.406 230.865 157.516 230.865V231.357L157.68 230.865L157.897 230.81L157.952 230.755C158.007 230.755 158.061 230.701 158.061 230.646C158.116 230.591 158.171 230.537 158.171 230.483L158.225 230.428L168.606 202.457L184.338 179.895V179.841C184.338 179.786 184.393 179.786 184.393 179.731C184.393 179.677 184.447 179.677 184.447 179.622L187.397 158.809L200.618 144.277L213.347 145.096L235.035 142.638H235.144L256.559 131.603L274.587 128.052C274.859 127.997 275.078 127.724 275.078 127.396L273.713 112.756C273.713 112.701 273.713 112.701 273.658 112.646C273.658 112.592 273.658 112.592 273.658 112.537L261.475 86.3148C261.475 86.3148 261.421 86.3148 261.421 86.2602C261.421 86.2055 261.366 86.2055 261.366 86.1509V86.0964L245.851 70.5815L250.987 40.8083V40.6445L245.032 19.8852C245.087 19.7214 245.032 19.5574 244.923 19.3935C244.814 19.2297 244.649 19.175 244.431 19.175H244.376L244.213 18.5741V19.175L232.249 18.9019C232.085 18.9019 231.921 18.9565 231.811 19.1204C231.702 19.2297 231.647 19.4481 231.702 19.6121L236.564 51.8436V77.7926L210.561 66.6481H230.337L230.556 67.3038V66.6481L230.609 66.5936H230.664C230.664 66.5936 230.664 66.5936 230.719 66.539L230.773 66.4843C230.828 66.4297 230.828 66.4297 230.883 66.375C230.883 66.375 230.883 66.375 230.937 66.3204H231.047L230.937 66.2657C230.937 66.2112 230.937 66.2111 230.937 66.1565V66.1019V31.5759C230.937 31.5759 230.937 31.5759 230.937 31.5214L229.299 6.66483C229.299 6.66483 229.299 6.61021 229.244 6.61021C229.299 6.39169 229.244 6.11854 229.025 5.95465L229.135 5.57225L228.861 5.90002C228.643 5.79076 228.37 5.84539 228.206 6.06391L228.042 6.2278L208.758 9.99725C208.704 9.99725 208.649 9.94261 208.594 9.99725L201.001 10.8167C200.728 10.8713 200.509 11.0352 200.454 11.3084L192.916 59.2731L188.654 38.2954C188.654 38.2954 188.654 38.2954 188.654 38.2407L179.204 6.55558C179.204 6.50095 179.149 6.50095 179.149 6.44632C179.094 6.39169 179.094 6.28242 179.04 6.2278L179.258 5.57225L178.821 6.11854C178.766 6.11854 178.766 6.11854 178.711 6.11854C178.657 6.11854 178.657 6.06391 178.602 6.06391L178.383 5.35373V6.11854C178.33 6.17316 178.22 6.2278 178.166 6.28242C178.166 6.28242 178.111 6.28243 178.111 6.33706L154.783 36.2741H154.73V36.3288L154.675 36.438C154.675 36.438 154.675 36.4926 154.675 36.5472C154.62 36.6565 154.62 36.7112 154.62 36.8204V36.875C154.62 36.875 154.62 36.9297 154.675 36.9297C154.675 36.9843 154.675 36.9843 154.675 37.039L161.831 53.5917V73.5861C161.831 73.8593 161.995 74.0778 162.213 74.1324V74.2417L162.268 74.1324H162.378C162.487 74.1324 162.542 74.0231 162.596 74.0231L139.925 94.1815L139.761 93.6898V94.2907L139.542 94.4547C139.542 94.4547 139.542 94.5093 139.487 94.5093C139.487 94.564 139.433 94.564 139.433 94.6185C139.433 94.6185 139.433 94.6186 139.378 94.6731L119.602 134.171ZM226.895 7.7028L217.444 18.9565L209.14 11.363L209.195 11.1445L226.895 7.7028ZM237.711 54.9028L242.573 66.375L244.485 70.8547L237.711 77.4102V54.9028ZM140.69 95.2195L162.432 75.8805L145.825 111.281L142.93 102.212L140.69 95.2195ZM165.819 73.5315L192.314 63.3704L190.949 83.9112L177.837 78.5028L165.819 73.5315ZM207.283 11.363L207.72 11.8L206.846 14.6954L202.694 11.8547L207.283 11.363ZM239.733 136.574L246.78 126.686L255.03 131.111L236.892 140.453L239.733 136.574ZM200.29 143.184L189.747 138.65H207.392L200.29 143.184ZM167.404 195.41L165.873 186.997L182.208 180.933L168.387 200.764L167.404 195.41ZM140.416 212.783L128.343 210.379V193.116L134.133 202.567L140.416 212.783ZM120.368 149.412L120.913 159.628C120.368 160.119 119.166 161.977 116.597 168.969L119.93 141.327L120.368 149.412ZM215.859 22.7259L218.592 31.2481L208.485 31.4667L215.859 22.7259ZM215.859 45.1241L213.893 51.3519L209.304 35.0722L215.859 45.1241ZM209.085 32.6685L218.919 32.45L219.411 33.925L216.297 43.7038L209.085 32.6685ZM219.793 31.1935L217.39 23.6547L221.759 26.55L220.285 31.1935H219.793ZM222.797 27.2055L228.425 30.975L221.542 31.139L222.797 27.2055ZM213.128 53.1547L208.211 55.2852V35.8917L213.128 53.1547ZM222.252 24.9657L222.197 25.1843L216.843 21.5241L217.554 20.7047L222.252 24.9657ZM215.859 20.8685L207.883 15.4055L208.704 12.6741L216.625 19.8852L215.859 20.8685ZM204.88 21.0871L202.475 13.1657L206.463 15.8972L204.88 21.0871ZM207.502 16.6074L215.04 21.7972L207.72 30.4833L205.48 23.163L207.502 16.6074ZM207.009 65.2824L201.219 63.8621L207.009 64.4083V65.2824ZM195.428 62.0593L207.009 57.088V63.2065L195.428 62.0593ZM193.571 63.2065L206.518 66.375L192.259 83.0371L193.571 63.2065ZM214.549 53.264L216.733 46.4352L227.933 63.425L214.549 53.264ZM217.171 44.9602L220.066 35.8917L228.48 62.0593L217.171 44.9602ZM207.009 55.7769L194.226 61.2945L207.009 34.2528V55.7769ZM244.485 67.7407L237.821 52.1167L243.611 45.9981L244.485 67.7407ZM260.328 87.189V102.594L239.187 80.1964L252.352 84.5667L260.328 87.189ZM268.632 110.461L272.183 113.029L257.269 129.254L261.366 105.162L268.632 110.461ZM213.237 143.239L201.164 120.95L226.294 109.915L220.885 123.681L213.237 143.239ZM141.837 212.783L129.218 192.241L156.368 202.512L150.304 206.828L141.837 212.783ZM116.052 174.105L121.459 161.867C122.443 165.91 124.683 177.491 126.704 188.581L116.052 174.105ZM190.402 85.0038L180.132 94.1269L165.983 74.8973L190.402 85.0038ZM259.673 103.687L228.261 108.057L235.144 86.8612L237.383 79.9778L256.449 100.191L259.673 103.687ZM186.196 143.348V158.535L181.225 165.036L186.196 143.348ZM185.268 137.831L152.544 145.861L146.535 114.176L185.268 137.831ZM152.325 147.555L178.547 167.221L141.018 173.449L152.325 147.555ZM153.473 146.899L186.032 138.923L179.695 166.566L153.473 146.899ZM186.251 137.011L148.337 113.793L187.507 117.891L186.251 137.011ZM139.761 127.233L139.816 127.341V127.451L139.87 127.396L150.742 145.479L121.897 134.498L139.761 127.233ZM188.654 117.017L181.88 98.2788L199.854 121.005L207.666 135.427L188.654 117.017ZM226.349 108.604L201.383 119.529L211.871 92.5973L226.349 108.604ZM200.126 119.476L181.17 95.4926L210.78 92.2148L200.126 119.476ZM150.851 143.403L140.635 126.414L145.497 114.995L150.851 143.403ZM120.804 135.372L122.99 136.191L150.468 146.626L122.061 159.191L121.678 152.362L120.804 135.372ZM150.906 147.773L139.433 173.941C139.378 174.159 139.378 174.378 139.487 174.541C139.597 174.705 139.761 174.76 139.98 174.76L178.602 168.369L164.726 186.178V186.233C164.726 186.233 164.726 186.233 164.671 186.287L157.297 201.583L128.288 190.603C127.742 187.653 123.59 164.764 122.28 160.502L150.906 147.773ZM167.021 185.304L179.804 168.86L183.082 179.349L169.643 184.321L167.021 185.304ZM207.993 137.448H187.452L188.709 118.71L207.993 137.448ZM187.233 116.634L147.792 112.537L179.695 95.875L187.233 116.634ZM158.608 201.747L164.999 188.581L167.24 201.146L167.349 201.802H158.608V201.747ZM235.254 140.781L234.652 138.214L228.37 110.516L245.742 126.031L240.771 133.023L235.254 140.781ZM229.681 99.8083L227.113 107.62L212.637 91.6685L236.073 80.0324L229.681 99.8083ZM140.58 98.8797L142.219 104.069L145.059 112.974L140.58 123.572V98.8797ZM118.292 179.185L127.196 191.259V207.265L117.199 177.71L118.292 179.185ZM145.88 211.417L157.023 203.495V228.898L142.602 213.711L145.88 211.417ZM158.225 202.949H167.185L158.225 227.095V202.949ZM180.678 167.714L185.868 160.939L183.573 177L180.678 167.714ZM187.397 138.978L199.307 144.059L187.397 157.169V138.978ZM209.249 138.923L212.199 144.004L202.202 143.348L209.249 138.923ZM224.328 118.273L227.223 110.843L232.904 135.919L234.216 141.709L214.221 144.004L224.328 118.273ZM246.944 125.429L228.752 109.259L260.219 104.889L255.904 130.291L246.944 125.429ZM266.502 107.402L261.53 103.796V89.4288L271.582 111.062L266.502 107.402ZM240.825 79.4315L238.258 78.6121L245.196 71.838L258.69 85.3315L240.825 79.4315ZM243.721 44.0861L238.204 49.9315L243.885 24.9657L244.158 43.9222C244.049 43.9222 243.83 43.9769 243.721 44.0861ZM211.544 90.9038L181.88 94.1815L191.823 85.3315L233.669 79.8685L211.544 90.9038ZM208.211 56.5417L213.73 54.138L228.261 65.1731L208.211 63.2612V56.5417ZM220.668 33.8704L221.159 32.3407L229.735 32.1222V62.1686L220.668 33.8704ZM223.618 24.5833L228.316 9.72409L229.626 30.1009L223.618 24.5833ZM222.633 23.7093L218.318 19.7759L227.223 9.12316L222.633 23.7093ZM204.278 23.163L195.156 53.2093L201.383 13.6574L204.278 23.163ZM179.149 94.7824L147.081 111.554L164.344 74.6241L179.149 94.7824ZM139.378 126.031L121.406 133.296L139.378 97.514V126.031ZM258.033 130.183L265.737 121.824L272.62 114.34L273.821 127.069L258.033 130.183ZM245.687 64.5176L245.087 24.6926L249.73 40.9176L245.687 64.5176ZM243.666 20.5407L237.22 48.7297L232.904 20.3222L243.666 20.5407ZM193.025 84.0204L207.83 66.8121L234.925 78.6121L193.025 84.0204ZM208.211 64.5176L217.718 65.4464H208.211V64.5176ZM206.901 31.7398L195.92 55.0121L204.933 25.239L206.901 31.7398ZM187.78 39.5519L191.987 60.1472L180.242 45.4519L187.78 39.5519ZM162.978 53.8648L177.783 46.763L162.978 71.4555V53.8648ZM179.04 44.8509L163.306 52.3898L165.819 43.4305L178.056 10.1065V29.8824C178.056 30.0464 178.111 30.2102 178.275 30.3195L187.288 38.4047L179.04 44.8509ZM164.89 42.338L164.344 42.0102L156.04 36.6565L176.69 10.1611L164.89 42.338ZM164.508 43.5398L162.268 51.6797L156.532 38.4047L164.508 43.5398ZM179.204 29.6093V10.8167L186.961 36.6019L179.204 29.6093ZM179.421 46.3805L192.042 62.1686L163.961 72.9305C163.907 72.9305 163.907 72.9852 163.852 72.9852C163.852 72.9852 163.797 72.9852 163.743 73.0398L163.688 73.0945L163.58 73.0398L163.633 73.1491L162.923 73.75L179.421 46.3805Z" fill="#FFA6AF"/>
<path d="M269.888 130.565C269.833 130.565 269.833 130.565 269.888 130.565C269.833 130.619 269.779 130.565 269.779 130.619L236.946 144.112L207.61 150.177L200.398 149.084C200.071 149.029 199.853 149.193 199.743 149.467L190.948 173.941L170.571 204.861C170.571 204.861 170.571 204.916 170.571 204.971C170.571 205.024 170.517 205.024 170.517 205.079L164.07 230.319C164.07 230.428 164.07 230.483 164.07 230.536V230.591C164.125 230.701 164.179 230.865 164.289 230.919L164.179 231.411L164.453 230.974L185.703 240.043L190.948 251.897C191.057 252.116 191.221 252.224 191.494 252.279L210.997 252.935L238.203 264.134L238.421 264.189C238.584 264.189 238.748 264.134 238.858 264.024C239.022 263.861 239.077 263.643 239.022 263.424L233.777 247.145L240.06 209.778L257.651 187.052L282.834 168.095L312.389 160.993H349.21L364.506 162.523H364.56C364.725 162.523 364.889 162.414 364.998 162.305C364.998 162.305 365.053 162.305 365.053 162.25L365.162 162.141H365.326L365.217 162.031L375.05 148.702L375.159 148.866L375.105 148.647L375.322 148.319C375.432 148.155 375.486 147.883 375.377 147.664C375.322 147.555 375.214 147.445 375.105 147.391L367.839 126.467C367.784 126.249 367.565 126.085 367.346 126.085L355.165 124.283C355.165 124.283 355.165 124.283 355.11 124.283L320.475 121.933H320.42H320.365L297.639 124.283C297.639 124.283 297.639 124.283 297.584 124.283C297.584 124.283 297.584 124.283 297.531 124.283L269.888 130.565ZM206.572 151.215L193.625 170.062L200.672 150.341L206.572 151.215ZM334.679 127.615L325.227 129.145L321.622 123.354L349.756 125.266L334.679 127.615ZM362.267 161.103L349.756 159.846L347.407 151.051L354.181 155.64L362.267 161.103ZM354.181 125.703L346.369 148.155L326.265 130.128L350.412 126.249L354.181 125.703ZM332.056 151.433L313.372 140.453L324.627 130.783L332.056 151.433ZM333.148 153.455L346.588 159.791H315.777L333.148 153.455ZM333.641 152.362L326.265 131.821L345.877 149.412C345.877 149.467 345.822 149.467 345.822 149.521C345.822 149.576 345.822 149.631 345.822 149.631C345.822 149.685 345.822 149.74 345.822 149.795L348.336 159.3L333.641 152.362ZM348.281 150.122L373.629 148.647L364.452 161.103L348.281 150.122ZM347.353 148.974L355.329 126.14L373.41 147.445L347.353 148.974ZM314.029 138.322L320.584 123.9L324.189 129.636L314.029 138.322ZM312.171 139.469L299.005 125.429L319.491 123.354L312.171 139.469ZM311.898 140.945C311.898 140.945 311.953 140.945 312.007 140.999C312.007 140.999 312.007 141.054 312.062 141.054L331.783 152.69L312.498 159.736L301.682 149.248H301.627C301.572 149.248 301.572 149.193 301.519 149.193L278.082 137.612C277.919 137.557 277.755 137.557 277.591 137.612C277.427 137.667 277.317 137.831 277.263 137.995L269.56 161.704H253.007L270.215 131.985L277.536 137.011C277.645 137.066 277.755 137.121 277.864 137.121C277.972 137.121 278.082 137.121 278.191 137.066L297.694 125.703L311.898 140.945ZM282.453 166.893L271.527 162.359L298.569 151.433L282.453 166.893ZM168.495 225.839L183.3 204.151L185.484 238.677L165.491 230.155L168.495 225.839ZM166.091 227.259L171.609 205.681L182.481 203.277L169.915 221.686L166.091 227.259ZM239.022 209.122L228.151 215.678L200.453 203.167L216.241 176.399V196.667C216.241 196.831 216.351 197.049 216.515 197.159C216.624 197.214 216.733 197.267 216.843 197.267L242.355 189.128L239.022 209.122ZM299.77 149.576L270.981 161.267L278.191 138.869L299.77 149.576ZM192.696 173.612L207.501 152.034L215.969 173.612H192.696ZM241.534 188.145L217.443 195.847V175.197L241.534 188.145ZM199.251 202.84L185.321 201.857L214.493 177L199.251 202.84ZM200.289 204.424L226.894 216.443L203.021 230.701L200.289 204.424ZM235.089 157.279L250.003 162.305L219.137 172.739L235.089 157.279ZM265.408 169.789L257.487 184.867L252.679 162.96H269.014L265.408 169.789ZM215.203 174.815L184.939 200.6L191.986 174.815H215.203ZM199.033 204.041L201.819 231.357L186.686 238.677L184.393 203.004L199.033 204.041ZM187.56 239.605L202.202 232.504L209.959 251.023L207.064 249.548L187.56 239.605ZM243.174 187.653L218.263 174.323L251.422 163.124L256.503 186.069L243.174 187.653ZM251.86 161.267L238.148 144.878L268.631 132.367L251.86 161.267ZM235.634 156.186L237.493 146.024L250.112 161.048L235.634 156.186ZM234.488 155.914L210.56 150.778L236.345 145.479L234.488 155.914ZM217.06 173.121L208.593 151.543L233.722 156.951L217.06 173.121ZM183.355 201.857L174.722 203.769L172.429 204.26L189.965 177.71L183.355 201.857ZM203.239 231.957L227.714 217.371L232.467 246.762L211.434 251.679L203.239 231.957ZM238.748 210.707L233.231 243.484L228.86 216.661L238.748 210.707ZM243.61 188.8L255.957 187.379L240.551 207.265L243.61 188.8ZM269.779 163.998L270.27 163.069L281.36 167.714L259.017 184.484L269.779 163.998ZM301.245 150.505L311.133 160.119L284.583 166.511L301.245 150.505ZM277.864 135.809L271.472 131.439L294.034 126.414L277.864 135.809ZM208.429 251.624L191.931 251.078L187.451 240.917L208.429 251.624ZM213.127 252.498L232.794 247.909L237.493 262.55L213.127 252.498ZM356.584 125.757L366.801 127.286L372.974 145.151L356.584 125.757Z" fill="#FFA6AF"/>
<path d="M227.986 319.201C226.348 319.201 225.036 320.512 225.036 322.151C225.036 323.79 226.348 325.101 227.986 325.101C229.626 325.101 230.936 323.79 230.936 322.151C230.882 320.567 229.571 319.201 227.986 319.201Z" fill="#FFA6AF"/>
<path d="M261.475 348.1C259.836 348.1 258.525 349.411 258.525 351.05C258.525 352.689 259.836 354 261.475 354C263.114 354 264.425 352.689 264.425 351.05C264.425 349.411 263.114 348.1 261.475 348.1Z" fill="#FFA6AF"/>
<path d="M241.59 281.561C239.951 281.561 238.64 282.872 238.64 284.511C238.64 286.15 239.951 287.461 241.59 287.461C243.229 287.461 244.54 286.15 244.54 284.511C244.54 282.872 243.229 281.561 241.59 281.561Z" fill="#FFA6AF"/>
<path d="M224.436 274.678C226.076 274.678 227.386 273.367 227.386 271.728C227.386 270.089 226.076 268.778 224.436 268.778C222.797 268.778 221.486 270.089 221.486 271.728C221.486 273.367 222.797 274.678 224.436 274.678Z" fill="#FFA6AF"/>
<path d="M242.082 268.833C242.082 267.193 240.771 265.883 239.132 265.883C237.493 265.883 236.182 267.193 236.182 268.833C236.182 270.471 237.493 271.783 239.132 271.783C240.771 271.783 242.082 270.471 242.082 268.833Z" fill="#FFA6AF"/>
<path d="M360.245 323.571C358.607 323.571 357.295 324.883 357.295 326.521C357.295 328.16 358.607 329.471 360.245 329.471C361.884 329.471 363.195 328.16 363.195 326.521C363.195 324.883 361.829 323.571 360.245 323.571Z" fill="#FFA6AF"/>
<path d="M375.378 359.026C373.739 359.026 372.428 360.336 372.428 361.976C372.428 363.615 373.739 364.926 375.378 364.926C377.017 364.926 378.328 363.615 378.328 361.976C378.328 360.336 377.017 359.026 375.378 359.026Z" fill="#FFA6AF"/>
<path d="M386.741 444.139C385.102 444.139 383.791 445.45 383.791 447.089C383.791 448.728 385.102 450.039 386.741 450.039C388.379 450.039 389.691 448.728 389.691 447.089C389.691 445.45 388.379 444.139 386.741 444.139Z" fill="#FFA6AF"/>
<path d="M303.43 461.511C301.791 461.511 300.48 462.822 300.48 464.461C300.48 466.1 301.791 467.411 303.43 467.411C305.069 467.411 306.38 466.1 306.38 464.461C306.325 462.822 305.015 461.511 303.43 461.511Z" fill="#FFA6AF"/>
<path d="M379.475 496.802C377.836 496.802 376.525 498.112 376.525 499.752C376.525 501.391 377.836 502.702 379.475 502.702C381.114 502.702 382.425 501.391 382.425 499.752C382.425 498.112 381.059 496.802 379.475 496.802Z" fill="#FFA6AF"/>
<path d="M338.503 574.922C336.863 574.922 335.553 576.233 335.553 577.872C335.553 579.511 336.863 580.822 338.503 580.822C340.141 580.822 341.453 579.511 341.453 577.872C341.453 576.233 340.141 574.922 338.503 574.922Z" fill="#FFA6AF"/>
<path d="M294.47 574.431C292.832 574.431 291.521 575.741 291.521 577.381C291.521 579.019 292.832 580.331 294.47 580.331C296.11 580.331 297.421 579.019 297.421 577.381C297.421 575.741 296.11 574.431 294.47 574.431Z" fill="#FFA6AF"/>
<path d="M320.804 574.431C319.164 574.431 317.854 575.741 317.854 577.381C317.854 579.019 319.164 580.331 320.804 580.331C322.442 580.331 323.754 579.019 323.754 577.381C323.754 575.741 322.388 574.431 320.804 574.431Z" fill="#FFA6AF"/>
<path d="M257.705 563.177C256.067 563.177 254.755 564.488 254.755 566.127C254.755 567.766 256.067 569.077 257.705 569.077C259.344 569.077 260.655 567.766 260.655 566.127C260.601 564.488 259.289 563.177 257.705 563.177Z" fill="#FFA6AF"/>
<path d="M359.808 547.826C358.169 547.826 356.858 549.136 356.858 550.776C356.858 552.415 358.169 553.726 359.808 553.726C361.447 553.726 362.758 552.415 362.758 550.776C362.703 549.191 361.393 547.826 359.808 547.826Z" fill="#FFA6AF"/>
<path d="M373.247 483.581C371.609 483.581 370.297 484.893 370.297 486.531C370.297 488.171 371.609 489.481 373.247 489.481C374.886 489.481 376.197 488.171 376.197 486.531C376.197 484.893 374.831 483.581 373.247 483.581Z" fill="#FFA6AF"/>
<path d="M358.005 536.464C358.005 534.824 356.695 533.513 355.055 533.513C353.417 533.513 352.105 534.824 352.105 536.464C352.105 538.102 353.417 539.413 355.055 539.413C356.695 539.413 358.005 538.102 358.005 536.464Z" fill="#FFA6AF"/>
<path d="M319.328 547.771C319.328 546.133 318.017 544.821 316.378 544.821C314.739 544.821 313.428 546.133 313.428 547.771C313.428 549.41 314.739 550.721 316.378 550.721C318.017 550.776 319.328 549.41 319.328 547.771Z" fill="#FFA6AF"/>
<path d="M241.153 489.919C239.514 489.919 238.203 491.229 238.203 492.869C238.203 494.507 239.514 495.819 241.153 495.819C242.791 495.819 244.103 494.507 244.103 492.869C244.103 491.229 242.791 489.919 241.153 489.919Z" fill="#FFA6AF"/>
<path d="M129.434 483.581C127.796 483.581 126.484 484.893 126.484 486.531C126.484 488.171 127.796 489.481 129.434 489.481C131.074 489.481 132.384 488.171 132.384 486.531C132.384 484.893 131.019 483.581 129.434 483.581Z" fill="#FFA6AF"/>
<path d="M187.56 513.027C187.56 511.388 186.25 510.077 184.61 510.077C182.972 510.077 181.66 511.388 181.66 513.027C181.66 514.666 182.972 515.977 184.61 515.977C186.25 515.977 187.56 514.666 187.56 513.027Z" fill="#FFA6AF"/>
<path d="M183.792 457.578C183.792 455.939 182.481 454.628 180.842 454.628C179.203 454.628 177.892 455.939 177.892 457.578C177.892 459.217 179.203 460.528 180.842 460.528C182.481 460.528 183.792 459.217 183.792 457.578Z" fill="#FFA6AF"/>
<path d="M122.116 436.109C120.477 436.109 119.166 437.419 119.166 439.059C119.166 440.697 120.477 442.009 122.116 442.009C123.754 442.009 125.066 440.697 125.066 439.059C125.066 437.419 123.754 436.109 122.116 436.109Z" fill="#FFA6AF"/>
<path d="M113.046 354.219C111.406 354.219 110.096 355.529 110.096 357.169C110.096 358.807 111.406 360.119 113.046 360.119C114.684 360.119 115.996 358.807 115.996 357.169C115.996 355.584 114.684 354.219 113.046 354.219Z" fill="#FFA6AF"/>
<path d="M100.481 322.151C98.843 322.151 97.5312 323.462 97.5312 325.101C97.5312 326.74 98.843 328.051 100.481 328.051C102.121 328.051 103.431 326.74 103.431 325.101C103.431 323.517 102.066 322.151 100.481 322.151Z" fill="#FFA6AF"/>
<path d="M76.9363 337.338C75.2969 337.338 73.9863 338.649 73.9863 340.288C73.9863 341.927 75.2969 343.238 76.9363 343.238C78.5757 343.238 79.8863 341.927 79.8863 340.288C79.8863 338.649 78.5757 337.338 76.9363 337.338Z" fill="#FFA6AF"/>
<path d="M68.5231 325.101C68.5231 323.462 67.2124 322.151 65.573 322.151C63.9348 322.151 62.623 323.462 62.623 325.101C62.623 326.74 63.9348 328.051 65.573 328.051C67.2124 328.051 68.5231 326.74 68.5231 325.101Z" fill="#FFA6AF"/>
<path d="M45.7965 291.176C45.7965 289.538 44.4859 288.226 42.8465 288.226C41.2082 288.226 39.8965 289.538 39.8965 291.176C39.8965 292.815 41.2082 294.126 42.8465 294.126C44.4309 294.126 45.7965 292.815 45.7965 291.176Z" fill="#FFA6AF"/>
<path d="M16.6805 294.945C18.3193 294.945 19.6305 293.634 19.6305 291.995C19.6305 290.357 18.3193 289.045 16.6805 289.045C15.0415 289.045 13.7305 290.357 13.7305 291.995C13.7305 293.579 15.0415 294.945 16.6805 294.945Z" fill="#FFA6AF"/>
<path d="M19.9578 364.817C18.319 364.817 17.0078 366.128 17.0078 367.767C17.0078 369.405 18.319 370.717 19.9578 370.717C21.5969 370.717 22.9075 369.405 22.9075 367.767C22.9075 366.128 21.5969 364.817 19.9578 364.817Z" fill="#FFA6AF"/>
<path d="M59.6727 350.34C58.0344 350.34 56.7227 351.651 56.7227 353.29C56.7227 354.929 58.0344 356.24 59.6727 356.24C61.3121 356.24 62.6226 354.929 62.6226 353.29C62.6226 351.705 61.3121 350.34 59.6727 350.34Z" fill="#FFA6AF"/>
<path d="M69.4519 367.876C67.8137 367.876 66.502 369.186 66.502 370.826C66.502 372.465 67.8137 373.776 69.4519 373.776C71.0913 373.776 72.4019 372.465 72.4019 370.826C72.347 369.186 71.0364 367.876 69.4519 367.876Z" fill="#FFA6AF"/>
<path d="M67.2117 430.045C65.5723 430.045 64.2617 431.355 64.2617 432.995C64.2617 434.633 65.5723 435.945 67.2117 435.945C68.8511 435.945 70.1617 434.633 70.1617 432.995C70.1067 431.355 68.7961 430.045 67.2117 430.045Z" fill="#FFA6AF"/>
<path d="M34.5438 390.657C32.9055 390.657 31.5938 391.967 31.5938 393.607C31.5938 395.245 32.9055 396.557 34.5438 396.557C36.1832 396.557 37.4938 395.245 37.4938 393.607C37.4938 391.967 36.1282 390.657 34.5438 390.657Z" fill="#FFA6AF"/>
<path d="M49.3484 367.876C47.709 367.876 46.3984 369.186 46.3984 370.826C46.3984 372.465 47.709 373.776 49.3484 373.776C50.9867 373.776 52.2984 372.465 52.2984 370.826C52.2434 369.186 50.9328 367.876 49.3484 367.876Z" fill="#FFA6AF"/>
<path d="M47.982 357.223C47.982 355.584 46.6703 354.273 45.032 354.273C43.3926 354.273 42.082 355.584 42.082 357.223C42.082 358.862 43.3926 360.173 45.032 360.173C46.6703 360.173 47.982 358.807 47.982 357.223Z" fill="#FFA6AF"/>
<path d="M31.4852 367.821C33.1234 367.821 34.4352 366.51 34.4352 364.871C34.4352 363.233 33.1234 361.921 31.4852 361.921C29.8458 361.921 28.5352 363.233 28.5352 364.871C28.5352 366.51 29.8458 367.821 31.4852 367.821Z" fill="#FFA6AF"/>
<path d="M21.1054 331.547C21.1054 329.909 19.794 328.597 18.1551 328.597C16.5161 328.597 15.2051 329.909 15.2051 331.547C15.2051 333.186 16.5161 334.497 18.1551 334.497C19.794 334.497 21.1054 333.186 21.1054 331.547Z" fill="#FFA6AF"/>
<path d="M18.1539 317.671C18.1539 316.033 16.8427 314.721 15.2039 314.721C13.565 314.721 12.2539 316.033 12.2539 317.671C12.2539 319.31 13.565 320.621 15.2039 320.621C16.8427 320.621 18.1539 319.31 18.1539 317.671Z" fill="#FFA6AF"/>
<path d="M31.4852 384.921C33.1234 384.921 34.4352 383.609 34.4352 381.971C34.4352 380.331 33.1234 379.021 31.4852 379.021C29.8458 379.021 28.5352 380.331 28.5352 381.971C28.5352 383.609 29.8458 384.921 31.4852 384.921Z" fill="#FFA6AF"/>
<path d="M92.616 476.698C90.9766 476.698 89.666 478.009 89.666 479.648C89.666 481.286 90.9766 482.598 92.616 482.598C94.2543 482.598 95.566 481.286 95.566 479.648C95.566 478.009 94.2543 476.698 92.616 476.698Z" fill="#FFA6AF"/>
<path d="M32.0848 403.549C30.4465 403.549 29.1348 404.86 29.1348 406.499C29.1348 408.138 30.4465 409.449 32.0848 409.449C33.7242 409.449 35.0348 408.138 35.0348 406.499C35.0348 404.86 33.7242 403.549 32.0848 403.549Z" fill="#FFA6AF"/>
<path d="M137.029 513.955C135.39 513.955 134.079 515.267 134.079 516.905C134.079 518.545 135.39 519.855 137.029 519.855C138.667 519.855 139.979 518.545 139.979 516.905C139.924 515.267 138.612 513.955 137.029 513.955Z" fill="#FFA6AF"/>
<path d="M208.648 551.431C207.009 551.431 205.698 552.743 205.698 554.381C205.698 556.021 207.009 557.331 208.648 557.331C210.286 557.331 211.598 556.021 211.598 554.381C211.598 552.797 210.286 551.431 208.648 551.431Z" fill="#FFA6AF"/>
<path d="M253.882 540.997C255.511 540.997 256.832 539.676 256.832 538.047C256.832 536.418 255.511 535.097 253.882 535.097C252.253 535.097 250.932 536.418 250.932 538.047C250.932 539.676 252.253 540.997 253.882 540.997Z" fill="#FFA6AF"/>
<path d="M188.709 531.055C187.069 531.055 185.759 532.366 185.759 534.005C185.759 535.643 187.069 536.955 188.709 536.955C190.347 536.955 191.659 535.643 191.659 534.005C191.604 532.366 190.293 531.055 188.709 531.055Z" fill="#FFA6AF"/>
<path d="M367.84 389.836C366.2 389.836 364.89 391.148 364.89 392.788C364.89 394.426 366.2 395.738 367.84 395.738C369.478 395.738 370.79 394.426 370.79 392.788C370.735 391.148 369.423 389.836 367.84 389.836Z" fill="#FFA6AF"/>
<path d="M259.18 426.876C257.541 426.876 256.23 428.186 256.23 429.826C256.23 431.465 257.541 432.776 259.18 432.776C260.819 432.776 262.13 431.465 262.13 429.826C262.13 428.186 260.765 426.876 259.18 426.876Z" fill="#FFA6AF"/>
<path d="M185.977 375.688C187.616 375.688 188.927 374.377 188.927 372.738C188.927 371.099 187.616 369.788 185.977 369.788C184.338 369.788 183.027 371.099 183.027 372.738C183.027 374.377 184.393 375.688 185.977 375.688Z" fill="#FFA6AF"/>
<path d="M175.16 403.549C173.521 403.549 172.21 404.86 172.21 406.499C172.21 408.138 173.521 409.449 175.16 409.449C176.798 409.449 178.11 408.138 178.11 406.499C178.11 404.86 176.798 403.549 175.16 403.549Z" fill="#FFA6AF"/>
<path d="M161.776 15.1324C163.416 15.1324 164.726 13.8212 164.726 12.1824C164.726 10.5435 163.416 9.23239 161.776 9.23239C160.137 9.23239 158.826 10.5435 158.826 12.1824C158.826 13.8212 160.192 15.1324 161.776 15.1324Z" fill="#FFA6AF"/>
<path d="M378 140.617C379.639 140.617 380.95 139.305 380.95 137.667C380.95 136.028 379.639 134.717 378 134.717C376.36 134.717 375.05 136.028 375.05 137.667C375.05 139.251 376.36 140.617 378 140.617Z" fill="#FFA6AF"/>
<path d="M167.785 9.17777C169.424 9.17777 170.735 7.86667 170.735 6.22777C170.735 4.58889 169.424 3.27777 167.785 3.27777C166.147 3.27777 164.835 4.58889 164.835 6.22777C164.835 7.86667 166.147 9.17777 167.785 9.17777Z" fill="#FFA6AF"/>
<path d="M315.012 423.653C315.012 422.014 313.702 420.703 312.062 420.703C310.423 420.703 309.112 422.014 309.112 423.653C309.112 425.292 310.423 426.603 312.062 426.603C313.702 426.603 315.012 425.237 315.012 423.653Z" fill="#FFA6AF"/>
<path d="M211.161 283.036C209.523 283.036 208.211 284.347 208.211 285.986C208.211 287.626 209.523 288.936 211.161 288.936C212.8 288.936 214.111 287.626 214.111 285.986C214.111 284.347 212.745 283.036 211.161 283.036Z" fill="#FFA6AF"/>
<path d="M174.833 276.426C174.833 274.786 173.521 273.476 171.883 273.476C170.243 273.476 168.933 274.786 168.933 276.426C168.933 278.065 170.243 279.376 171.883 279.376C173.521 279.376 174.833 278.065 174.833 276.426Z" fill="#FFA6AF"/>
<path d="M167.512 254.793C167.512 256.431 168.822 257.743 170.462 257.743C172.101 257.743 173.412 256.431 173.412 254.793C173.412 253.154 172.101 251.843 170.462 251.843C168.822 251.788 167.512 253.154 167.512 254.793Z" fill="#FFA6AF"/>
<path d="M168.058 317.781C166.419 317.781 165.108 319.091 165.108 320.731C165.108 322.369 166.419 323.681 168.058 323.681C169.697 323.681 171.008 322.369 171.008 320.731C171.008 319.091 169.697 317.781 168.058 317.781Z" fill="#FFA6AF"/>
<path d="M124.245 304.178C122.607 304.178 121.295 305.489 121.295 307.128C121.295 308.767 122.607 310.078 124.245 310.078C125.884 310.078 127.195 308.767 127.195 307.128C127.195 305.489 125.829 304.178 124.245 304.178Z" fill="#FFA6AF"/>
<path d="M142.055 281.616C140.416 281.616 139.105 282.927 139.105 284.566C139.105 286.205 140.416 287.516 142.055 287.516C143.694 287.516 145.005 286.205 145.005 284.566C145.005 282.927 143.64 281.616 142.055 281.616Z" fill="#FFA6AF"/>
<path d="M152.981 280.031C151.342 280.031 150.031 281.343 150.031 282.981C150.031 284.621 151.342 285.931 152.981 285.931C154.62 285.931 155.931 284.621 155.931 282.981C155.931 281.343 154.566 280.031 152.981 280.031Z" fill="#FFA6AF"/>
<path d="M159.317 262.386C157.679 262.386 156.367 263.697 156.367 265.336C156.367 266.976 157.679 268.286 159.317 268.286C160.957 268.286 162.267 266.976 162.267 265.336C162.267 263.697 160.957 262.386 159.317 262.386Z" fill="#FFA6AF"/>
<path d="M104.96 223.927C106.599 223.927 107.91 222.616 107.91 220.977C107.91 219.338 106.599 218.027 104.96 218.027C103.322 218.027 102.01 219.338 102.01 220.977C102.01 222.616 103.322 223.927 104.96 223.927Z" fill="#FFA6AF"/>
<path d="M116.706 208.959C115.066 208.959 113.756 210.269 113.756 211.909C113.756 213.547 115.066 214.859 116.706 214.859C118.344 214.859 119.656 213.547 119.656 211.909C119.656 210.269 118.344 208.959 116.706 208.959Z" fill="#FFA6AF"/>
<path d="M92.3973 212.455C94.0355 212.455 95.3473 211.143 95.3473 209.505C95.3473 207.866 94.0355 206.555 92.3973 206.555C90.7579 206.555 89.4473 207.866 89.4473 209.505C89.4473 211.143 90.7579 212.455 92.3973 212.455Z" fill="#FFA6AF"/>
<path d="M128.233 193.99C129.873 193.99 131.183 192.679 131.183 191.04C131.183 189.401 129.873 188.09 128.233 188.09C126.595 188.09 125.283 189.401 125.283 191.04C125.283 192.679 126.595 193.99 128.233 193.99Z" fill="#FFA6AF"/>
<path d="M118.619 160.065C118.619 161.704 119.93 163.015 121.569 163.015C123.207 163.015 124.519 161.704 124.519 160.065C124.519 158.426 123.207 157.115 121.569 157.115C119.93 157.06 118.619 158.426 118.619 160.065Z" fill="#FFA6AF"/>
<path d="M186.195 141.436C187.835 141.436 189.145 140.124 189.145 138.486C189.145 136.847 187.835 135.536 186.195 135.536C184.557 135.536 183.245 136.847 183.245 138.486C183.245 140.124 184.557 141.436 186.195 141.436Z" fill="#FFA6AF"/>
<path d="M260.93 107.074C262.568 107.074 263.879 105.763 263.879 104.124C263.879 102.485 262.568 101.174 260.93 101.174C259.29 101.174 257.979 102.485 257.979 104.124C258.033 105.763 259.345 107.074 260.93 107.074Z" fill="#FFA6AF"/>
<path d="M257.268 134.116C258.907 134.116 260.218 132.805 260.218 131.166C260.218 129.527 258.907 128.216 257.268 128.216C255.629 128.216 254.318 129.527 254.318 131.166C254.372 132.805 255.684 134.116 257.268 134.116Z" fill="#FFA6AF"/>
<path d="M276.06 126.741C276.06 125.102 274.75 123.791 273.11 123.791C271.472 123.791 270.16 125.102 270.16 126.741C270.16 128.379 271.472 129.691 273.11 129.691C274.75 129.691 276.06 128.379 276.06 126.741Z" fill="#FFA6AF"/>
<path d="M213.292 147.609C214.931 147.609 216.242 146.298 216.242 144.659C216.242 143.021 214.931 141.709 213.292 141.709C211.654 141.709 210.342 143.021 210.342 144.659C210.342 146.298 211.707 147.609 213.292 147.609Z" fill="#FFA6AF"/>
<path d="M227.714 111.772C229.353 111.772 230.664 110.461 230.664 108.822C230.664 107.183 229.353 105.872 227.714 105.872C226.074 105.872 224.764 107.183 224.764 108.822C224.819 110.461 226.129 111.772 227.714 111.772Z" fill="#FFA6AF"/>
<path d="M237.875 141.381C237.875 139.743 236.564 138.431 234.925 138.431C233.286 138.431 231.975 139.743 231.975 141.381C231.975 143.021 233.286 144.331 234.925 144.331C236.564 144.331 237.875 143.021 237.875 141.381Z" fill="#FFA6AF"/>
<path d="M204.333 10.5982C204.333 8.95928 203.021 7.64816 201.383 7.64816C199.743 7.64816 198.433 8.95928 198.433 10.5982C198.433 12.2371 199.743 13.5481 201.383 13.5481C203.021 13.5481 204.333 12.2371 204.333 10.5982Z" fill="#FFA6AF"/>
<path d="M229.189 28.5714C227.55 28.5714 226.239 29.8824 226.239 31.5214C226.239 33.1602 227.55 34.4713 229.189 34.4713C230.827 34.4713 232.139 33.1602 232.139 31.5214C232.139 29.9371 230.827 28.5714 229.189 28.5714Z" fill="#FFA6AF"/>
<path d="M180.022 97.9509C181.661 97.9509 182.972 96.6398 182.972 95.0009C182.972 93.3621 181.661 92.0509 180.022 92.0509C178.383 92.0509 177.072 93.3621 177.072 95.0009C177.127 96.6398 178.438 97.9509 180.022 97.9509Z" fill="#FFA6AF"/>
<path d="M148.666 112.919C148.666 111.281 147.354 109.969 145.716 109.969C144.076 109.969 142.766 111.281 142.766 112.919C142.766 114.558 144.076 115.869 145.716 115.869C147.354 115.924 148.666 114.558 148.666 112.919Z" fill="#FFA6AF"/>
<path d="M163.743 76.4269C165.381 76.4269 166.693 75.1157 166.693 73.4769C166.693 71.8379 165.381 70.5269 163.743 70.5269C162.104 70.5269 160.793 71.8379 160.793 73.4769C160.793 75.1157 162.104 76.4269 163.743 76.4269Z" fill="#FFA6AF"/>
<path d="M139.979 97.9509C141.608 97.9509 142.929 96.6302 142.929 95.0009C142.929 93.3717 141.608 92.0509 139.979 92.0509C138.35 92.0509 137.029 93.3717 137.029 95.0009C137.029 96.6302 138.35 97.9509 139.979 97.9509Z" fill="#FFA6AF"/>
<path d="M192.095 59.4917C190.456 59.4917 189.145 60.8028 189.145 62.4417C189.145 64.0805 190.456 65.3917 192.095 65.3917C193.734 65.3917 195.045 64.0805 195.045 62.4417C195.045 60.8028 193.679 59.4917 192.095 59.4917Z" fill="#FFA6AF"/>
<path d="M237.11 81.8352C238.748 81.8352 240.06 80.5241 240.06 78.8852C240.06 77.2464 238.748 75.9352 237.11 75.9352C235.471 75.9352 234.16 77.2464 234.16 78.8852C234.16 80.5241 235.526 81.8352 237.11 81.8352Z" fill="#FFA6AF"/>
<path d="M203.895 32.1222C203.895 33.7612 205.206 35.0722 206.845 35.0722C208.484 35.0722 209.795 33.7612 209.795 32.1222C209.795 30.4833 208.484 29.1722 206.845 29.1722C205.206 29.1722 203.895 30.4833 203.895 32.1222Z" fill="#FFA6AF"/>
<path d="M156.095 39.8796C157.733 39.8796 159.045 38.5685 159.045 36.9296C159.045 35.2907 157.733 33.9796 156.095 33.9796C154.455 33.9796 153.145 35.2907 153.145 36.9296C153.145 38.5685 154.51 39.8796 156.095 39.8796Z" fill="#FFA6AF"/>
<path d="M186.905 41.4093C188.544 41.4093 189.855 40.0981 189.855 38.4593C189.855 36.8203 188.544 35.5093 186.905 35.5093C185.267 35.5093 183.955 36.8203 183.955 38.4593C184.01 40.0981 185.321 41.4093 186.905 41.4093Z" fill="#FFA6AF"/>
<path d="M163.252 56.4324C164.89 56.4324 166.202 55.1214 166.202 53.4824C166.202 51.8435 164.89 50.5324 163.252 50.5324C161.612 50.5324 160.302 51.8435 160.302 53.4824C160.356 55.1214 161.667 56.4324 163.252 56.4324Z" fill="#FFA6AF"/>
<path d="M120.147 137.011C121.786 137.011 123.097 135.7 123.097 134.061C123.097 132.422 121.786 131.111 120.147 131.111C118.508 131.111 117.197 132.422 117.197 134.061C117.252 135.7 118.563 137.011 120.147 137.011Z" fill="#FFA6AF"/>
<path d="M61.2566 57.9621C62.896 57.9621 64.2066 56.6509 64.2066 55.0121C64.2066 53.3731 62.896 52.0621 61.2566 52.0621C59.6184 52.0621 58.3066 53.3731 58.3066 55.0121C58.3066 56.6509 59.6184 57.9621 61.2566 57.9621Z" fill="#FFA6AF"/>
<path d="M120.147 80.3055C121.786 80.3055 123.097 78.9945 123.097 77.3555C123.097 75.7167 121.786 74.4055 120.147 74.4055C118.508 74.4055 117.197 75.7167 117.197 77.3555C117.252 78.9945 118.563 80.3055 120.147 80.3055Z" fill="#FFA6AF"/>
<path d="M87.2059 108.057C85.5665 108.057 84.2559 109.368 84.2559 111.007C84.2559 112.646 85.5665 113.957 87.2059 113.957C88.8441 113.957 90.1559 112.646 90.1559 111.007C90.1009 109.368 88.7903 108.057 87.2059 108.057Z" fill="#FFA6AF"/>
<path d="M70.4344 65.0093C68.7961 65.0093 67.4844 66.3203 67.4844 67.9593C67.4844 69.5981 68.7961 70.9093 70.4344 70.9093C72.0738 70.9093 73.3844 69.5981 73.3844 67.9593C73.3844 66.3203 72.0738 65.0093 70.4344 65.0093Z" fill="#FFA6AF"/>
<path d="M111.571 109.15C113.21 109.15 114.521 107.839 114.521 106.2C114.521 104.561 113.21 103.25 111.571 103.25C109.933 103.25 108.621 104.561 108.621 106.2C108.621 107.839 109.933 109.15 111.571 109.15Z" fill="#FFA6AF"/>
<path d="M57.9793 97.9509C59.6084 97.9509 60.9293 96.6302 60.9293 95.0009C60.9293 93.3717 59.6084 92.0509 57.9793 92.0509C56.3502 92.0509 55.0293 93.3717 55.0293 95.0009C55.0293 96.6302 56.3502 97.9509 57.9793 97.9509Z" fill="#FFA6AF"/>
<path d="M112.445 174.214C112.445 175.853 113.757 177.164 115.395 177.164C117.035 177.164 118.345 175.853 118.345 174.214C118.345 172.574 117.035 171.264 115.395 171.264C113.757 171.264 112.445 172.574 112.445 174.214Z" fill="#FFA6AF"/>
<path d="M70.0535 146.681C68.4141 146.681 67.1035 147.991 67.1035 149.631C67.1035 151.269 68.4141 152.581 70.0535 152.581C71.6918 152.581 73.0035 151.269 73.0035 149.631C72.9485 147.991 71.6368 146.681 70.0535 146.681Z" fill="#FFA6AF"/>
<path d="M64.5348 179.731C64.5348 178.093 63.2242 176.781 61.5848 176.781C59.9465 176.781 58.6348 178.093 58.6348 179.731C58.6348 181.371 59.9465 182.681 61.5848 182.681C63.2242 182.681 64.5348 181.371 64.5348 179.731Z" fill="#FFA6AF"/>
<path d="M68.5231 204.26C68.5231 202.621 67.2124 201.31 65.573 201.31C63.9348 201.31 62.623 202.621 62.623 204.26C62.623 205.899 63.9348 207.21 65.573 207.21C67.2124 207.21 68.5231 205.899 68.5231 204.26Z" fill="#FFA6AF"/>
<path d="M63.7703 231.302C65.4086 231.302 66.7203 229.991 66.7203 228.352C66.7203 226.713 65.4086 225.402 63.7703 225.402C62.1309 225.402 60.8203 226.713 60.8203 228.352C60.8203 229.991 62.1309 231.302 63.7703 231.302Z" fill="#FFA6AF"/>
<path d="M152.925 233.979C152.925 232.34 151.615 231.029 149.975 231.029C148.336 231.029 147.025 232.34 147.025 233.979C147.025 235.617 148.336 236.929 149.975 236.929C151.615 236.929 152.925 235.617 152.925 233.979Z" fill="#FFA6AF"/>
<path d="M157.624 199.398C155.984 199.398 154.674 200.709 154.674 202.348C154.674 203.986 155.984 205.298 157.624 205.298C159.263 205.298 160.574 203.986 160.574 202.348C160.574 200.709 159.263 199.398 157.624 199.398Z" fill="#FFA6AF"/>
<path d="M168.168 186.615C168.168 184.976 166.857 183.665 165.218 183.665C163.579 183.665 162.268 184.976 162.268 186.615C162.268 188.254 163.579 189.565 165.218 189.565C166.857 189.565 168.168 188.254 168.168 186.615Z" fill="#FFA6AF"/>
<path d="M58.0348 213.438C58.0348 211.799 56.723 210.488 55.0848 210.488C53.4454 210.488 52.1348 211.799 52.1348 213.438C52.1348 215.077 53.4454 216.388 55.0848 216.388C56.723 216.388 58.0348 215.077 58.0348 213.438Z" fill="#FFA6AF"/>
<path d="M113.539 311.443C113.539 309.805 112.228 308.493 110.589 308.493C108.949 308.493 107.639 309.805 107.639 311.443C107.639 313.083 108.949 314.393 110.589 314.393C112.228 314.393 113.539 313.083 113.539 311.443Z" fill="#FFA6AF"/>
<path d="M113.046 290.521C111.406 290.521 110.096 291.831 110.096 293.471C110.096 295.109 111.406 296.421 113.046 296.421C114.684 296.421 115.996 295.109 115.996 293.471C115.996 291.831 114.684 290.521 113.046 290.521Z" fill="#FFA6AF"/>
<path d="M104.141 266.101C102.503 266.101 101.191 267.412 101.191 269.051C101.191 270.69 102.503 272.001 104.141 272.001C105.781 272.001 107.091 270.69 107.091 269.051C107.091 267.412 105.781 266.101 104.141 266.101Z" fill="#FFA6AF"/>
<path d="M33.7234 259.217C35.3628 259.217 36.6734 257.907 36.6734 256.267C36.6734 254.629 35.3628 253.317 33.7234 253.317C32.084 253.317 30.7734 254.629 30.7734 256.267C30.7734 257.907 32.084 259.217 33.7234 259.217Z" fill="#FFA6AF"/>
<path d="M189.472 262.386C187.834 262.386 186.522 263.697 186.522 265.336C186.522 266.976 187.834 268.286 189.472 268.286C191.112 268.286 192.422 266.976 192.422 265.336C192.369 263.697 191.057 262.386 189.472 262.386Z" fill="#FFA6AF"/>
<path d="M191.384 254.793C191.384 253.154 190.074 251.843 188.434 251.843C186.796 251.843 185.484 253.154 185.484 254.793C185.484 256.431 186.796 257.743 188.434 257.743C190.074 257.743 191.384 256.377 191.384 254.793Z" fill="#FFA6AF"/>
<path d="M216.843 258.617C215.203 258.617 213.893 259.928 213.893 261.567C213.893 263.205 215.203 264.517 216.843 264.517C218.481 264.517 219.793 263.205 219.793 261.567C219.793 259.928 218.427 258.617 216.843 258.617Z" fill="#FFA6AF"/>
<path d="M169.152 235.891C169.152 234.252 167.84 232.941 166.202 232.941C164.563 232.941 163.252 234.252 163.252 235.891C163.252 237.529 164.563 238.841 166.202 238.841C167.84 238.841 169.152 237.476 169.152 235.891Z" fill="#FFA6AF"/>
<path d="M157.624 226.276C155.984 226.276 154.674 227.586 154.674 229.226C154.674 230.865 155.984 232.176 157.624 232.176C159.263 232.176 160.574 230.865 160.574 229.226C160.574 227.586 159.263 226.276 157.624 226.276Z" fill="#FFA6AF"/>
<path d="M106.163 151.379C107.801 151.379 109.113 150.067 109.113 148.429C109.113 146.79 107.801 145.479 106.163 145.479C104.523 145.479 103.213 146.79 103.213 148.429C103.213 150.067 104.523 151.379 106.163 151.379Z" fill="#FFA6AF"/>
<path d="M168.058 199.398C166.419 199.398 165.108 200.709 165.108 202.348C165.108 203.986 166.419 205.298 168.058 205.298C169.697 205.298 171.008 203.986 171.008 202.348C171.008 200.709 169.697 199.398 168.058 199.398Z" fill="#FFA6AF"/>
<path d="M175.979 242.829C177.619 242.829 178.929 241.517 178.929 239.879C178.929 238.24 177.619 236.929 175.979 236.929C174.341 236.929 173.029 238.24 173.029 239.879C173.029 241.517 174.341 242.829 175.979 242.829Z" fill="#FFA6AF"/>
<path d="M254.974 300.845C253.335 300.845 252.024 302.157 252.024 303.795C252.024 305.434 253.335 306.745 254.974 306.745C256.614 306.745 257.924 305.434 257.924 303.795C257.924 302.157 256.614 300.845 254.974 300.845Z" fill="#FFA6AF"/>
<path d="M282.562 282.435C280.923 282.435 279.612 283.746 279.612 285.385C279.612 287.024 280.923 288.335 282.562 288.335C284.202 288.335 285.512 287.024 285.512 285.385C285.512 283.746 284.202 282.435 282.562 282.435Z" fill="#FFA6AF"/>
<path d="M329.38 257.141C327.741 257.141 326.43 258.453 326.43 260.091C326.43 261.731 327.741 263.041 329.38 263.041C331.019 263.041 332.33 261.731 332.33 260.091C332.33 258.453 331.019 257.141 329.38 257.141Z" fill="#FFA6AF"/>
<path d="M301.245 246.762C302.884 246.762 304.195 245.451 304.195 243.812C304.195 242.173 302.884 240.862 301.245 240.862C299.607 240.862 298.295 242.173 298.295 243.812C298.35 245.451 299.661 246.762 301.245 246.762Z" fill="#FFA6AF"/>
<path d="M320.475 247.636C322.114 247.636 323.425 246.326 323.425 244.686C323.425 243.047 322.114 241.736 320.475 241.736C318.836 241.736 317.525 243.047 317.525 244.686C317.525 246.326 318.836 247.636 320.475 247.636Z" fill="#FFA6AF"/>
<path d="M322.551 277.791C322.005 277.245 321.294 276.917 320.475 276.917C318.836 276.917 317.525 278.229 317.525 279.867C317.525 281.507 318.836 282.817 320.475 282.817C321.458 282.817 322.332 282.271 322.824 281.507C323.37 282.053 324.081 282.381 324.9 282.381C326.539 282.381 327.85 281.069 327.85 279.431C327.85 277.791 326.539 276.481 324.9 276.481C323.917 276.481 323.097 277.027 322.551 277.791Z" fill="#FFA6AF"/>
<path d="M312.281 276.371C312.281 278.01 313.592 279.321 315.231 279.321C316.869 279.321 318.181 278.01 318.181 276.371C318.181 274.733 316.869 273.421 315.231 273.421C313.592 273.421 312.281 274.786 312.281 276.371Z" fill="#FFA6AF"/>
<path d="M303.212 321.988C304.851 321.988 306.162 320.676 306.162 319.038C306.162 317.398 304.851 316.086 303.212 316.086C301.572 316.086 300.262 317.398 300.262 319.038C300.262 320.676 301.627 321.988 303.212 321.988Z" fill="#FFA6AF"/>
<path d="M264.479 276.917C262.841 276.917 261.529 278.229 261.529 279.867C261.529 281.507 262.841 282.817 264.479 282.817C266.119 282.817 267.429 281.507 267.429 279.867C267.375 278.229 266.064 276.917 264.479 276.917Z" fill="#FFA6AF"/>
<path d="M281.852 266.811C281.852 265.172 280.542 263.861 278.902 263.861C277.263 263.861 275.952 265.172 275.952 266.811C275.952 268.45 277.263 269.761 278.902 269.761C280.542 269.761 281.852 268.45 281.852 266.811Z" fill="#FFA6AF"/>
<path d="M254.974 262.605C253.335 262.605 252.024 263.916 252.024 265.555C252.024 267.193 253.335 268.505 254.974 268.505C256.614 268.505 257.924 267.193 257.924 265.555C257.924 263.971 256.614 262.605 254.974 262.605Z" fill="#FFA6AF"/>
<path d="M253.062 244.741C253.062 243.102 251.751 241.791 250.112 241.791C248.473 241.791 247.162 243.102 247.162 244.741C247.162 246.379 248.473 247.691 250.112 247.691C251.751 247.691 253.062 246.379 253.062 244.741Z" fill="#FFA6AF"/>
<path d="M252.024 224.145C250.385 224.145 249.074 225.457 249.074 227.095C249.074 228.734 250.385 230.045 252.024 230.045C253.664 230.045 254.974 228.734 254.974 227.095C254.974 225.457 253.609 224.145 252.024 224.145Z" fill="#FFA6AF"/>
<path d="M238.749 250.149C240.388 250.149 241.699 248.838 241.699 247.199C241.699 245.56 240.388 244.249 238.749 244.249C237.111 244.249 235.799 245.56 235.799 247.199C235.799 248.838 237.111 250.149 238.749 250.149Z" fill="#FFA6AF"/>
<path d="M300.262 285.385C300.262 287.024 301.572 288.335 303.212 288.335C304.851 288.335 306.162 287.024 306.162 285.385C306.162 283.746 304.851 282.435 303.212 282.435C301.572 282.435 300.262 283.746 300.262 285.385Z" fill="#FFA6AF"/>
<path d="M329.871 290.629C329.871 288.991 328.56 287.679 326.921 287.679C325.282 287.679 323.971 288.991 323.971 290.629C323.971 292.269 325.282 293.579 326.921 293.579C328.56 293.634 329.871 292.269 329.871 290.629Z" fill="#FFA6AF"/>
<path d="M297.749 275.005C296.111 275.005 294.799 276.317 294.799 277.955C294.799 279.595 296.111 280.905 297.749 280.905C299.388 280.905 300.699 279.595 300.699 277.955C300.699 276.317 299.333 275.005 297.749 275.005Z" fill="#FFA6AF"/>
<path d="M291.357 263.643C292.997 263.643 294.307 262.331 294.307 260.693C294.307 259.054 292.997 257.743 291.357 257.743C289.719 257.743 288.407 259.054 288.407 260.693C288.407 262.331 289.773 263.643 291.357 263.643Z" fill="#FFA6AF"/>
<path d="M338.34 295.109C339.978 295.109 341.29 293.798 341.29 292.159C341.29 290.521 339.978 289.209 338.34 289.209C336.7 289.209 335.39 290.521 335.39 292.159C335.39 293.798 336.7 295.109 338.34 295.109Z" fill="#FFA6AF"/>
<path d="M304.578 212.509C302.94 212.509 301.628 213.821 301.628 215.459C301.628 217.098 302.94 218.409 304.578 218.409C306.217 218.409 307.528 217.098 307.528 215.459C307.528 213.821 306.162 212.509 304.578 212.509Z" fill="#FFA6AF"/>
<path d="M373.903 150.941C375.541 150.941 376.853 149.631 376.853 147.991C376.853 146.353 375.541 145.041 373.903 145.041C372.264 145.041 370.953 146.353 370.953 147.991C370.953 149.631 372.264 150.941 373.903 150.941Z" fill="#FFA6AF"/>
<path d="M269.888 200.873C268.248 200.873 266.938 202.184 266.938 203.823C266.938 205.462 268.248 206.773 269.888 206.773C271.527 206.773 272.837 205.462 272.837 203.823C272.837 202.184 271.472 200.873 269.888 200.873Z" fill="#FFA6AF"/>
<path d="M343.747 338.212C342.109 338.212 340.797 339.523 340.797 341.162C340.797 342.801 342.109 344.112 343.747 344.112C345.386 344.112 346.697 342.801 346.697 341.162C346.697 339.523 345.331 338.212 343.747 338.212Z" fill="#FFA6AF"/>
<path d="M329.38 375.251C331.009 375.251 332.33 373.931 332.33 372.301C332.33 370.671 331.009 369.351 329.38 369.351C327.751 369.351 326.43 370.671 326.43 372.301C326.43 373.931 327.751 375.251 329.38 375.251Z" fill="#FFA6AF"/>
<path d="M254.974 191.914C253.335 191.914 252.024 193.226 252.024 194.864C252.024 196.503 253.335 197.814 254.974 197.814C256.614 197.814 257.924 196.503 257.924 194.864C257.924 193.279 256.614 191.914 254.974 191.914Z" fill="#FFA6AF"/>
<path d="M301.245 152.581C302.884 152.581 304.195 151.269 304.195 149.631C304.195 147.991 302.884 146.681 301.245 146.681C299.607 146.681 298.295 147.991 298.295 149.631C298.35 151.269 299.661 152.581 301.245 152.581Z" fill="#FFA6AF"/>
<path d="M321.131 126.959C322.769 126.959 324.081 125.648 324.081 124.009C324.081 122.371 322.769 121.059 321.131 121.059C319.491 121.059 318.181 122.371 318.181 124.009C318.181 125.648 319.491 126.959 321.131 126.959Z" fill="#FFA6AF"/>
<path d="M355.493 128.434C357.131 128.434 358.443 127.123 358.443 125.484C358.443 123.845 357.131 122.534 355.493 122.534C353.854 122.534 352.543 123.845 352.543 125.484C352.597 127.123 353.909 128.434 355.493 128.434Z" fill="#FFA6AF"/>
<path d="M367.785 161.54C367.785 159.901 366.473 158.59 364.835 158.59C363.195 158.59 361.885 159.901 361.885 161.54C361.885 163.179 363.195 164.49 364.835 164.49C366.473 164.49 367.785 163.179 367.785 161.54Z" fill="#FFA6AF"/>
<path d="M283.327 164.599C281.688 164.599 280.377 165.91 280.377 167.549C280.377 169.188 281.688 170.499 283.327 170.499C284.965 170.499 286.277 169.188 286.277 167.549C286.277 165.91 284.91 164.599 283.327 164.599Z" fill="#FFA6AF"/>
<path d="M242.518 185.14C240.879 185.14 239.568 186.451 239.568 188.09C239.568 189.729 240.879 191.04 242.518 191.04C244.157 191.04 245.468 189.729 245.468 188.09C245.468 186.505 244.157 185.14 242.518 185.14Z" fill="#FFA6AF"/>
<path d="M228.096 213.11C226.457 213.11 225.146 214.421 225.146 216.06C225.146 217.699 226.457 219.01 228.096 219.01C229.735 219.01 231.046 217.699 231.046 216.06C231.046 214.421 229.681 213.11 228.096 213.11Z" fill="#FFA6AF"/>
<path d="M280.758 137.066C280.758 135.427 279.448 134.116 277.808 134.116C276.17 134.116 274.858 135.427 274.858 137.066C274.858 138.705 276.17 140.016 277.808 140.016C279.448 140.071 280.758 138.705 280.758 137.066Z" fill="#FFA6AF"/>
<path d="M312.335 163.343C313.974 163.343 315.285 162.031 315.285 160.393C315.285 158.754 313.974 157.443 312.335 157.443C310.697 157.443 309.385 158.754 309.385 160.393C309.385 162.031 310.752 163.343 312.335 163.343Z" fill="#FFA6AF"/>
<path d="M345.823 146.298C344.185 146.298 342.873 147.609 342.873 149.248C342.873 150.886 344.185 152.198 345.823 152.198C347.462 152.198 348.773 150.886 348.773 149.248C348.719 147.609 347.407 146.298 345.823 146.298Z" fill="#FFA6AF"/>
<path d="M313.1 144.277C314.74 144.277 316.05 142.966 316.05 141.327C316.05 139.688 314.74 138.377 313.1 138.377C311.461 138.377 310.15 139.688 310.15 141.327C310.15 142.911 311.461 144.277 313.1 144.277Z" fill="#FFA6AF"/>
<path d="M202.475 228.953C200.836 228.953 199.525 230.264 199.525 231.903C199.525 233.541 200.836 234.853 202.475 234.853C204.114 234.853 205.425 233.541 205.425 231.903C205.425 230.264 204.114 228.953 202.475 228.953Z" fill="#FFA6AF"/>
<path d="M185.267 242.555C186.906 242.555 188.217 241.245 188.217 239.605C188.217 237.967 186.906 236.655 185.267 236.655C183.628 236.655 182.317 237.967 182.317 239.605C182.371 241.245 183.683 242.555 185.267 242.555Z" fill="#FFA6AF"/>
<path d="M213.401 174.869C213.401 176.509 214.712 177.819 216.351 177.819C217.99 177.819 219.301 176.509 219.301 174.869C219.301 173.231 217.99 171.919 216.351 171.919C214.712 171.919 213.401 173.285 213.401 174.869Z" fill="#FFA6AF"/>
<path d="M250.549 165.419C252.188 165.419 253.499 164.107 253.499 162.469C253.499 160.829 252.188 159.519 250.549 159.519C248.91 159.519 247.599 160.829 247.599 162.469C247.599 164.107 248.91 165.419 250.549 165.419Z" fill="#FFA6AF"/>
<path d="M204.988 150.723C204.988 152.362 206.299 153.673 207.938 153.673C209.578 153.673 210.888 152.362 210.888 150.723C210.888 149.084 209.578 147.773 207.938 147.773C206.299 147.773 204.988 149.139 204.988 150.723Z" fill="#FFA6AF"/>
<path d="M191.549 171.536C189.91 171.536 188.599 172.848 188.599 174.486C188.599 176.126 189.91 177.436 191.549 177.436C193.188 177.436 194.499 176.126 194.499 174.486C194.499 172.848 193.133 171.536 191.549 171.536Z" fill="#FFA6AF"/>
<path d="M186.742 202.785C186.742 201.146 185.431 199.835 183.792 199.835C182.154 199.835 180.842 201.146 180.842 202.785C180.842 204.424 182.154 205.735 183.792 205.735C185.431 205.735 186.742 204.424 186.742 202.785Z" fill="#FFA6AF"/>
<path d="M243.065 210.707C241.426 210.707 240.115 212.017 240.115 213.657C240.115 215.295 241.426 216.607 243.065 216.607C244.703 216.607 246.015 215.295 246.015 213.657C246.015 212.017 244.703 210.707 243.065 210.707Z" fill="#FFA6AF"/>
<path d="M294.143 274.951C294.143 273.312 292.833 272.001 291.193 272.001C289.555 272.001 288.243 273.312 288.243 274.951C288.243 276.59 289.555 277.901 291.193 277.901C292.833 277.901 294.143 276.59 294.143 274.951Z" fill="#FFA6AF"/>
<path d="M224.819 351.869C223.18 351.869 221.869 353.181 221.869 354.819C221.869 356.459 223.18 357.769 224.819 357.769C226.457 357.769 227.769 356.459 227.769 354.819C227.769 353.181 226.404 351.869 224.819 351.869Z" fill="#FFA6AF"/>
</svg>
