<svg width="140" height="89" viewBox="0 0 140 89" fill="none" xmlns="http://www.w3.org/2000/svg">
<path d="M64.1644 68.1013C63.6388 76.1701 63.439 78.6843 63.3401 78.8349C63.2138 79.0079 63.035 79.1357 62.8302 79.1993C62.0762 79.3882 61.9762 79.2433 59.5642 74.4656L57.2939 69.9686L58.3367 68.1013C58.581 68.194 58.9539 68.8281 60.0922 71.0867C61.4571 73.7948 61.7806 74.2564 61.8667 73.6185C61.8729 73.572 61.8864 71.531 62.1033 68.1013H64.1644Z" fill="#FE5353"/>
<path d="M69.662 68.1014C69.4668 64.4938 69.3185 60.3466 69.062 55.5397C68.0806 37.1464 67.2449 21.9575 67.2048 21.7866C67.1535 21.5673 67.0931 21.5164 66.9996 21.6136C66.9181 21.6984 66.2036 32.7911 65.1419 50.4547C64.6765 58.1976 64.4332 63.819 64.1656 68.1014H62.1045C62.5007 61.568 63.1901 50.2698 63.9642 37.3459C65.1635 17.3248 66.1744 0.813261 66.2107 0.653569C66.3929 -0.149295 67.6314 -0.237702 67.9552 0.529045C68.087 0.841108 68.6526 10.7783 70.2374 40.6273C70.8404 51.9853 71.3456 61.3361 71.7231 68.1014" fill="#FE5353"/>
<path d="M76.5312 68.1013C76.7876 67.8957 77.4251 68.0309 86.1968 68.0309H95.5879L97.1426 66.2463C99.057 64.0487 102.612 60.5311 104.219 59.2438C106.628 57.314 108.767 56.2588 110.269 56.2588C111.083 56.2588 112.097 56.5705 112.958 57.0855C114.967 58.2875 117.486 61.7242 119.651 66.2163L120.526 68.0309H139.126V69.126V69.6622V69.9724L129.484 70.0027C119.006 70.0356 119.241 70.0489 118.93 69.4067C117.257 65.9591 116.092 63.7312 115.462 62.771C113.877 60.3549 112.069 58.5697 110.889 58.2548C109.895 57.9898 108.359 58.6478 106.127 60.2945C104.652 61.3831 100.141 65.8149 98.1457 68.1367C97.3557 69.0559 96.5739 69.8589 96.4083 69.9213C96.2388 69.9851 92.1668 70.0347 87.0902 70.0347C80.0266 70.0347 78.002 70.0686 77.9053 70.1912" fill="#FE5353"/>
<path d="M77.9057 70.1912C77.8326 70.2779 76.682 74.5037 75.3489 79.4491C73.9606 84.5993 72.8312 88.543 72.7054 88.6799C72.5577 88.8248 72.3675 88.9265 72.1581 88.9724C71.9487 89.0184 71.7294 89.0067 71.5271 88.9387C71.3502 88.8634 71.1916 88.7556 71.0612 88.6218C70.9407 88.4875 70.6086 83.6745 69.6611 68.1013H71.7223C72.2048 75.7922 72.6043 80.0744 72.6523 80.1189C72.7527 80.2117 72.8275 80.204 72.9015 80.0933C72.9596 80.0063 73.6987 77.3775 74.544 74.2516C75.8017 69.6006 76.2895 68.2827 76.5316 68.1013" fill="#FE5353"/>
<path d="M57.281 70.0667L50.3988 70.0649C46.6136 70.0639 43.3857 70.027 43.2257 69.9829C43.0573 69.9364 42.5478 69.3724 42.0161 68.6439C40.0978 66.0156 37.7437 63.7736 35.9364 62.8538C35.0287 62.3919 34.8664 62.3524 33.9182 62.3636C33.1193 62.3731 32.6177 62.4699 31.6911 62.7937C29.2817 63.6355 25.2895 65.9699 21.5777 68.7075L19.8242 70.0008L0.000589188 70.0403L0 67.9566H19.1544L20.2577 67.1153C21.8478 65.9029 24.2193 64.297 25.8313 63.3412C29.8854 60.9374 33.0801 59.9415 35.1428 60.4385C37.6899 61.0523 40.2743 63.0392 42.8961 66.3993L44.1099 67.9566H51.0728C55.1531 67.9566 58.1679 68.0084 58.3551 68.0817" fill="#FE5353"/>
</svg>
